<svg xmlns="http://www.w3.org/2000/svg" version="1.1" xmlns:xlink="http://www.w3.org/1999/xlink" xmlns:svgjs="http://svgjs.dev/svgjs" viewBox="0 0 10.166213671486531 10.222720284571666"><g transform="matrix(1,0,0,1,2.613066568940658,2.6674985500132595)"><rect width="10.222720284571666" height="10.222720284571666" x="-2.641319875483225" y="-2.667498550013259" fill="#c8e5ce"></rect><g><path d=" M 0.3884662091300565 -1.268883193336345 L 0.5246112861325735 -1.336498160232538 Q 0.5503684628627794 -1.3492901809966829 0.5822941553557528 -1.3621968324133469 Q 0.6142198478487263 -1.375103483830011 0.6492782801206739 -1.3817022552311142 Q 0.6843367123926215 -1.3883010266322175 0.7218610968370529 -1.3846565597509701 Q 0.7593854812814844 -1.381012092869723 0.7967351677584458 -1.3612257670202745 Q 0.8340848542354073 -1.3414394411708261 0.8704625243142845 -1.3018387264203684 Q 0.9068401943931617 -1.2622380116699103 0.9397339620723908 -1.196005271506524 L 0.9553976609672618 -1.1644658714287206 Q 0.9911631067772172 -1.0924509079177367 1.004263685784243 -1.0350644340574822 Q 1.0173642647912688 -0.9776779601972275 1.0142242543491788 -0.9325403874959962 Q 1.0110842439070888 -0.8874028147947648 0.9944553914368884 -0.8529318731914651 Q 0.977826538966688 -0.8184609315881654 0.9540043576838011 -0.7931960484171603 Q 0.9301821764009139 -0.7679311652461551 0.9021794753745938 -0.7497644137783896 Q 0.8741767743482735 -0.7315976623106241 0.8478939409501041 -0.7185445798982315 L 0.8347525242510194 -0.7120180386920353 L 0.9705045813399015 -0.4386765713510745 L 0.8343595043373845 -0.3710616044548813 L 0.3884662091300565 -1.268883193336345 M 0.791984347767452 -0.8152866070323007 Q 0.828780314524889 -0.8335609224096503 0.8486600707980505 -0.8568678432187965 Q 0.8685398270712121 -0.8801747640279427 0.8721648604093872 -0.9104810860594137 Q 0.8757898937475622 -0.9407874080908847 0.8644778791921268 -0.9800581604494748 Q 0.8531658646366914 -1.019328912808065 0.8281039464048978 -1.0697919529325501 L 0.7879004525747288 -1.1507430797989116 Q 0.7680597673078923 -1.190692986564129 0.7477886224825394 -1.2169952535053705 Q 0.7275174776571864 -1.2432975204466121 0.7031380432833073 -1.2547809035182302 Q 0.6787586089094282 -1.2662642865898484 0.6489585100028483 -1.2629323191633108 Q 0.6191584110962683 -1.2596003517367733 0.5807854743349412 -1.2405428514146801 L 0.5739519376514172 -1.2371490499874582 L 0.7851508110839279 -0.8118928056050787 L 0.791984347767452 -0.8152866070323007 M 1.124203727642932 -1.5898500310893675 L 1.2699829339756548 -1.6329277369404924 L 1.5201330096516854 -0.7863952028693921 L 1.718820499363852 -0.8451072884502691 L 1.752750429841186 -0.730285056435306 L 1.4082837337962966 -0.6284952650033041 L 1.124203727642932 -1.5898500310893675 M 1.8945963536628616 -1.7671383231671438 L 2.0683408000684538 -1.7872135313601334 L 2.367641808987224 -0.8126774619917888 L 2.2148866245635155 -0.7950274467348649 L 2.1668698370194965 -0.9702699494699009 L 1.9849628998431719 -0.9492516106906633 L 1.9793404623223771 -0.7678113926745702 L 1.8260022428436162 -0.7500940109472001 L 1.8945963536628616 -1.7671383231671438 M 2.136242323630903 -1.0819407910917156 L 2.008949250674845 -1.5700196464876894 L 2.0025358650692695 -1.5692786153127805 L 1.989317489757718 -1.0649644405392544 L 2.136242323630903 -1.0819407910917156 M 2.6077329205977184 -1.8103730826925348 L 2.730500366130037 -1.7994552868254043 L 2.9131036126740844 -1.109725964290012 L 2.9166112539750078 -1.1094140272652366 Q 2.9169370134897137 -1.1329542711171137 2.916561464774608 -1.161859955928634 Q 2.916185916059502 -1.1907656407401543 2.9170968325336277 -1.227511528974623 Q 2.9180077490077534 -1.264257417209092 2.920361099183498 -1.3105973295169708 Q 2.9227144493592423 -1.3569372418248498 2.9278614102680325 -1.4148133232900857 L 2.9602508713405196 -1.7790234117026316 L 3.0958796683095575 -1.7669618467446588 L 3.0070815952568966 -0.7684532897484659 L 2.883144935957603 -0.7794750646238547 L 2.700151218056655 -1.4515622016463716 L 2.695474362988757 -1.4519781176794053 Q 2.694888655953405 -1.4255148394100923 2.6950822414040587 -1.3945630305063665 Q 2.6952758268547123 -1.3636112216026408 2.6939229995954883 -1.3218961748585307 Q 2.6925701723362647 -1.2801811281144204 2.6894109848465177 -1.2247798091124893 Q 2.6862517973567708 -1.1693784901105584 2.6794931618199755 -1.093379595257218 L 2.6533944307471207 -0.7999069397466275 L 2.5189348475450575 -0.8118645256963418 L 2.6077329205977184 -1.8103730826925348 M 3.5628917784700853 -1.5410614514451826 L 3.407927825921166 -1.5861898764167068 L 3.4414049120818606 -1.701144953943905 L 3.896717179934685 -1.56854943620939 L 3.8632400937739906 -1.4535943586821913 L 3.7088396465070677 -1.4985586802901831 L 3.4620281877537122 -0.651046736168094 L 3.3160803197167303 -0.6935495073230934 L 3.5628917784700853 -1.5410614514451826 M 4.016619952694334 -0.7911212023091083 L 4.134561654463055 -1.479407811035712 L 4.271617365701041 -1.4109881895892649 L 4.167195193007522 -0.9271789291917868 L 4.173496605018464 -0.9240331994701111 L 4.4963677274246345 -1.2987904961828307 L 4.632898320995041 -1.2306330188798564 L 4.152625428597163 -0.7232258691496072 L 4.003465410961039 -0.4244339162974467 L 3.8674599350582097 -0.4923292494569479 L 4.016619952694334 -0.7911212023091083" fill="#114b1e" fill-rule="nonzero"></path></g><g><path d=" M -1.377715732655601 1.3928398010190965 Q -1.4928915960882143 1.367038626040939 -1.5549809337728866 1.352971555522651 Q -1.5712140165048494 1.3492706063621511 -1.576883463396099 1.3389525458960088 Q -1.582552910287349 1.3286344854298664 -1.5800357626980028 1.3189209251823402 Q -1.5775186151086567 1.309207364934814 -1.5682096129005496 1.303529258772592 Q -1.5589006106924426 1.29785115261037 -1.542790315647765 1.302025933978066 L -1.4357042368213793 1.329775951304517 L -1.288693464903211 1.367366302155727 L -1.1569681113026125 1.4015012792210073 Q -1.0280857509451924 1.4348995301625767 -0.9924696230198756 1.4418535740892964 Q -0.956853495094559 1.448807618016016 -0.9386022958465254 1.4525258857184602 Q -0.920351096598492 1.4562441534209043 -0.9012663613523788 1.4596727704470798 Q -0.8821816261062656 1.4631013874732552 -0.8638690330145896 1.4665827390721011 Q -0.8455564399229134 1.470064090670947 -0.8398436966768028 1.4753368598469125 Q -0.8341309534306921 1.480609629022878 -0.8324017086440525 1.486619903269392 Q -0.8306724638574129 1.492630177515906 -0.8311982516904424 1.4985617393768333 Q -0.8317240395234716 1.5044933012377604 -0.8317744372556297 1.5242006341912717 Q -0.8326623565758151 1.5861656262949841 -0.8443271868679074 1.6311796859786418 Q -0.8559920171599996 1.6761937456622995 -0.8754679774935351 1.7045197668424175 Q -0.8949439378270707 1.7328457880225352 -0.9239327372820977 1.749099305083792 Q -0.9850162233518447 1.783835394013058 -1.0755181749263567 1.7603829457415885 Q -1.1987145487974198 1.7284581470474412 -1.279188778673135 1.6155757571968126 Q -1.3440596249015828 1.5244345774640353 -1.377715732655601 1.3928398010190965 M -1.3323333099100878 1.4030831346895996 Q -1.2674957245833745 1.664114464834177 -1.0684861975608875 1.7156852934939533 Q -0.9590309576985196 1.7440492492568302 -0.9081120020579284 1.6763400834662285 Q -0.8702824891183685 1.6259706474868312 -0.8768908502972785 1.5382974864009031 Q -0.8777519220019497 1.5279613284459788 -0.8788585690811913 1.5185728349054475 Q -0.9609196915295646 1.493768164180166 -1.048578649860898 1.4710524420324074 L -1.19167597643421 1.4339705604722826 Q -1.2006787883709416 1.4316375944138642 -1.2093305557877618 1.4299012482499271 Q -1.2179823232045823 1.4281649020859903 -1.2277572772957508 1.4258846706002424 Q -1.2375322313869197 1.4236044391144944 -1.2531159596517303 1.4203245875885204 Q -1.268699687916541 1.4170447360625467 -1.2921630414437348 1.4119758037999657 Q -1.3088699563828938 1.4081520669521808 -1.3323333099100878 1.4030831346895996 M -1.7267492498486354 2.005752047022982 Q -1.7156588863567392 1.9040529831199051 -1.6053268356054649 1.8675848525926155 Q -1.4949947848541902 1.8311167220653257 -1.2896502634805134 1.8535097048097282 Q -1.1276129989842232 1.871179996880548 -1.0236379876564188 1.9381580656375634 Q -0.9730837451980824 1.9712446089996727 -0.9454566657421021 2.013648168430129 Q -0.9178295862861219 2.056051727860585 -0.9233747680320699 2.1069012598121235 Q -0.9289199497780178 2.1577507917636622 -0.9595785494674226 2.1928134815920433 Q -0.9902371491568273 2.2278761714204247 -1.0430630444683278 2.2472271035706237 Q -1.146662313643501 2.285168026847871 -1.3345954207897759 2.2656585427327243 Q -1.532260495773666 2.2450877798145252 -1.6359701874007075 2.175676719098106 Q -1.7378396133405314 2.107451110926059 -1.7267492498486354 2.005752047022982 M -0.9862013887043113 2.152488975579492 Q -0.9693527309566563 2.1311842373955985 -0.9663280863679574 2.1034481290583957 Q -0.9633034417792585 2.075712020721193 -0.9752171530927205 2.051763108460176 Q -0.9871308644061826 2.0278141961991594 -1.0104440830282586 2.0068074316156954 Q -1.0337573016503347 1.9858006670322315 -1.0665501659835783 1.968191605082871 Q -1.0993430303168217 1.9505825431335104 -1.1376962212561104 1.9365523961435338 Q -1.2164020606423631 1.908766444794851 -1.2969340944986274 1.8999843626995934 Q -1.3774661283548917 1.891202280604336 -1.4326284474974436 1.891341599205753 Q -1.4877907666399952 1.8914809178071696 -1.5286159422616339 1.8978613713061083 Q -1.5694411178832726 1.904241824805047 -1.5975791804154282 1.9161910910190925 Q -1.625717242947584 1.9281403572331381 -1.6436322277849902 1.9434201909239281 Q -1.6757906890158742 1.9719183139271728 -1.6805664436296093 2.0157121691964406 Q -1.6946814517102042 2.1451473414367204 -1.459759482669216 2.1988317165085505 Q -1.4059502940005557 2.2111006569000926 -1.3495048805423886 2.217256073957796 Q -1.2930594670842215 2.223411491015499 -1.2503539594095279 2.224621865065611 Q -1.2076484517348343 2.225832239115723 -1.1676547901160683 2.2225616112238566 Q -1.1276611284973024 2.21929098333199 -1.0922991745319108 2.211083798541595 Q -1.056937220566519 2.202876613751199 -1.0299936335092426 2.188335163757292 Q -1.0030500464519663 2.1737937137633847 -0.9862013887043113 2.152488975579492 M -1.4914198240202352 2.498933612396572 L -1.284575379577639 2.4896272138423923 Q -1.1085789373743589 2.480874740168843 -0.9869183716623355 2.4635524163103355 Q -0.9713471807471012 2.461307781632104 -0.9633076200416895 2.470219640131888 Q -0.9552680593362776 2.479131498631672 -0.9546724048779388 2.491109034281618 Q -0.9540767504196 2.503086569931563 -0.9611681264770441 2.5132409926704677 Q -0.9682595025344881 2.523395415409372 -0.9939742752095417 2.5236940598078577 Q -1.0196890478845955 2.5239927042063433 -1.0591045889444506 2.5247276570541555 Q -1.0985201300043062 2.525462609901968 -1.1425678654088682 2.526672970308115 Q -1.230663336217992 2.529093691120409 -1.3020396711115445 2.53264330544357 Q -1.373416006005097 2.536192919766732 -1.3995588766190936 2.537738074107389 Q -1.42570174723309 2.539283228448046 -1.45012138511223 2.5409877287977145 Q -1.5800416386058544 2.5498992293759937 -1.6141442373686161 2.563847386836838 Q -1.6482468361313776 2.5777955442976825 -1.666021928277204 2.594852423720747 Q -1.701572112568857 2.628966182566875 -1.699043620174276 2.6798095992033786 Q -1.6964421904990823 2.732119652858242 -1.6561188791346169 2.764420501563851 Q -1.6142803058980486 2.7976261710010877 -1.5421233428759242 2.799918792324498 Q -1.4538576850787037 2.8009202245550457 -1.4005698734115994 2.79827017002611 Q -1.3472820617444952 2.795620115497174 -1.3084283369713727 2.793442838057872 Q -1.2695746121982505 2.79126556061857 -1.2212242154460906 2.7878808723461033 Q -1.0806215610984342 2.776967861358302 -0.9688627681118709 2.7674892835558884 Q -0.9532429523428947 2.766222406889897 -0.9454721435674139 2.7746575425969966 Q -0.9377013347919332 2.783092678304096 -0.9371421489739008 2.7943368954448613 Q -0.9365829631558685 2.8055811125856263 -0.9434542121371234 2.815234500104975 Q -0.9503254611183782 2.8248878876243237 -0.9659939017410963 2.8251770062780746 Q -1.0389341233604936 2.826844041857368 -1.1098337354613612 2.830124904250599 Q -1.180733347562229 2.8334057666438293 -1.250667357864292 2.836393564680258 Q -1.420356997841751 2.843852218792244 -1.4946896039645454 2.8421578823958735 Q -1.5690222100873399 2.840463545999503 -1.607212923163194 2.8313358252308625 Q -1.6454036362390478 2.8222081044622223 -1.675757498534842 2.803133931817431 Q -1.743552653480823 2.76043717044284 -1.7474183293533072 2.6827054084697246 Q -1.7538124976203722 2.5541302298601063 -1.6131290145860004 2.5152781782428395 Q -1.5691515859933505 2.5027992882690566 -1.5143971373078857 2.500076296459508 L -1.4914198240202352 2.498933612396572 M -1.4537511661875524 3.171209087018877 Q -1.5618785701413183 3.19709008848357 -1.6415120268880836 3.2157054920536075 Q -1.6577265708768554 3.2194868361145903 -1.6673904188701407 3.2124534989738565 Q -1.6770542668634258 3.205420161833122 -1.6790449312184261 3.1955851966529805 Q -1.6810355955734264 3.1857502314728383 -1.6751045388519779 3.1768089018243164 Q -1.6691734821305295 3.167867572175794 -1.6543010957605588 3.1648572992487205 L -1.2935257876890134 3.0918339043726117 Q -1.1064215720668025 3.053962728838459 -0.9595427143546575 3.014744665986128 Q -0.938724837532158 3.0090327573441553 -0.9279471621347228 3.020335331287025 Q -0.9235207199802841 3.0249328906283206 -0.9216358214422247 3.030544285049257 Q -0.9197509229041653 3.036155679470194 -0.910012541405789 3.054660342890965 Q -0.886097789269733 3.101258984220702 -0.8762415730730242 3.1499540557223797 Q -0.8663853568763153 3.198649127224058 -0.8707223098980554 3.232737670271226 Q -0.8750592629197954 3.2668262133183936 -0.892564003095479 3.293841526674329 Q -0.9298693763712775 3.351333313250145 -1.0215024665862578 3.36988047870405 Q -1.1395220487479603 3.3937684509640538 -1.2682242883149137 3.3229332749810077 Q -1.2889854740061457 3.311653795007867 -1.3096553276115173 3.298358191860308 Q -1.444065300648226 3.3745057964531857 -1.5809307368113588 3.4681303175526406 Q -1.6045069404800247 3.4848881243571976 -1.621161868213857 3.464287552661012 Q -1.6252056615475572 3.4591131333423926 -1.6267593508002405 3.4514370629578917 Q -1.6302551516187775 3.4341659045927644 -1.6120418049328844 3.422988259897294 Q -1.5705320243283387 3.3986053003470715 -1.5320377682467718 3.3778291590282317 Q -1.493543512165205 3.357053017709392 -1.4571110453009863 3.3371936058919007 Q -1.3913395484872937 3.301906997903789 -1.3452322085414528 3.2730975961991273 Q -1.4024499988596866 3.229743853400075 -1.4537511661875524 3.171209087018877 M -1.408465815014456 3.160544793883977 Q -1.3489857289333291 3.2274122757279957 -1.25978396408199 3.27827570142407 Q -1.138672236306109 3.3461525659119324 -1.0350452861153459 3.32517776100071 Q -0.9275803007323324 3.3034261114631454 -0.9116418405872508 3.2217928082262044 Q -0.9027217619552956 3.1770381290909744 -0.9281104182430386 3.1157555390554204 Q -0.9399851224638544 3.0866962788559604 -0.9534644335761885 3.0694482144605617 Q -1.099132880202418 3.0924401863392568 -1.1970027776048053 3.1122497243109675 Q -1.3011094821945997 3.133321634800483 -1.3089768769894699 3.135163754041828 Q -1.31684427178434 3.137005873283173 -1.3232724033821164 3.13855667578964 Q -1.3297005349798927 3.140107478296107 -1.3365598681875541 3.141995263580383 Q -1.3434192013952155 3.1438830488646583 -1.3562269118016217 3.147224531077108 Q -1.369034622208028 3.150566013289558 -1.389469850209789 3.1557010619542063 Q -1.39800832381406 3.1579287167625063 -1.408465815014456 3.160544793883977 M -0.7255360907780338 3.683559827728807 Q -0.7142731199901313 3.711212565969825 -0.7537122712519112 3.7272761472574896 Q -0.807204453423061 3.7490635333717925 -0.8666401386137941 3.772478919936707 Q -0.9260758238045271 3.7958943065016206 -0.9743127619083931 3.815012702653697 Q -1.022549700012259 3.834131098805773 -1.0866529633363813 3.85971185524599 Q -1.2198460493395633 3.912904395645554 -1.4133311711797194 3.990653905140053 Q -1.3784013312808912 4.081603852568155 -1.3364525945181946 4.1612385677144506 Q -1.327992301053792 4.176819661050927 -1.3329126717229935 4.189394271047493 Q -1.337833042392195 4.201968881044059 -1.3473528375243486 4.205846297216943 Q -1.3568726326565026 4.2097237133898275 -1.3672226476879457 4.204425791404158 Q -1.3775726627193885 4.199127869418489 -1.3831283758520863 4.182892266467482 Q -1.400097294305393 4.129551628818839 -1.426643922990873 4.070862772675325 Q -1.4531905516763528 4.01217391653181 -1.4599890953523764 4.000672735394829 Q -1.4667876390284 3.9891715542578474 -1.4679623159012891 3.9830434123728886 Q -1.4691369927741784 3.97691527048793 -1.46735679280616 3.9709049237877103 Q -1.4637123470231526 3.957792944366452 -1.4483833912275885 3.9526065089645055 Q -1.3400900076562268 3.914840897399309 -1.1689603570663196 3.845139725720076 Q -0.9978307064764125 3.7754385540408437 -0.9573505657030162 3.7586867138008797 Q -0.91687042492962 3.741934873560916 -0.8832404343312503 3.7271803115023143 Q -0.8164337767122325 3.6978558262504855 -0.764888576213242 3.6699905947604257 Q -0.7509361383222769 3.6627221803352468 -0.740359461501973 3.667927782888228 Q -0.7297827846816692 3.67313338544121 -0.7255360907780338 3.683559827728807 M -1.0104752181662802 4.326731711441372 L -1.162143059717813 4.4115410854871175 Q -1.1827142117538247 4.422892374642395 -1.1972854444459997 4.430932871127384 Q -1.2034774442665184 4.434908714655825 -1.2081916666081043 4.43751005175391 Q -1.1485973985428937 4.545508599942972 -1.1255406023725565 4.579187668812695 Q -1.1013457849625974 4.613915949493935 -1.0997492549619756 4.6208618096007115 Q -1.0981527249613539 4.627807669707488 -1.0996449640607564 4.634221693098272 Q -1.1026294422595615 4.647049739879839 -1.111843604109025 4.6521341714806415 Q -1.1210577659584886 4.657218603081443 -1.132193752427415 4.652741375856913 Q -1.1433297388963415 4.648264148632384 -1.1505131040464964 4.633219945558739 Q -1.1837253216506103 4.5598608686228115 -1.2185841750006692 4.5053003246450265 Q -1.253443028350728 4.4507397806672415 -1.2582982055710297 4.444473942965408 Q -1.2631533827913315 4.438208105263575 -1.2650380335069762 4.432259821444027 Q -1.2669226842226209 4.4263115376244775 -1.2658590107906353 4.420133999424429 Q -1.264012553831452 4.4062567408313456 -1.249396916425224 4.399309860871925 Q -1.1219941606807127 4.337394125760775 -0.9717818942510859 4.254506066408171 Q -0.821569627821459 4.171618007055566 -0.7826661923248611 4.15043038012776 Q -0.7437627568282633 4.1292427531999545 -0.7116203317719951 4.111506363894833 Q -0.6430942296993426 4.07257511685167 -0.615777038769793 4.05470602333071 Q -0.5884598478402433 4.03683692980975 -0.5811148552333111 4.036976864835823 Q -0.5737698626263791 4.037116799861895 -0.568597131523793 4.040412111059071 Q -0.5620498939908503 4.04518519973518 -0.5583249972736137 4.055988150848709 Q -0.5513925789346636 4.0756433052153636 -0.5350751007739513 4.105214336267131 Q -0.5036225704062012 4.16221357003358 -0.4897959274847625 4.181698336354257 Q -0.47596928456332377 4.2011831026749356 -0.4745870373964103 4.20824720537708 Q -0.473204790229497 4.215311308079223 -0.4745049488522176 4.221060280611855 Q -0.4766322957161889 4.233415357011953 -0.48648930606677776 4.238854516398857 Q -0.4963463164173667 4.244293675785761 -0.5070315348618497 4.240126771633282 Q -0.5177167533063327 4.235959867480801 -0.5244049457179911 4.222319604004775 Q -0.5310931381296498 4.208679340528748 -0.5382987056368311 4.193088329192319 Q -0.5455042731440125 4.17749731785589 -0.5541065494385772 4.159881720777744 Q -0.5726856084580634 4.123172749142518 -0.5894905186207157 4.097784103716345 Q -0.6267757316859868 4.118358315310286 -0.6638688642745759 4.138267476046076 Q -0.7078190475418357 4.161960399833625 -0.7530549278113462 4.18636277919338 Q -0.8746199015951196 4.251765905978388 -0.9320477010289855 4.283454921536873 Q -0.9024870521871151 4.337025629963987 -0.8859630319292509 4.360892093197175 Q -0.8678280200502949 4.386664899576712 -0.8694973680795879 4.396810540568646 Q -0.8711667161088807 4.40695618156058 -0.8805951607920528 4.412158855756749 Q -0.9041662724999828 4.425165541247172 -0.9276671158108502 4.38055030712176 Q -0.9322047391488675 4.37131394291527 -0.9362249873913618 4.364028326569183 L -0.9549517221734769 4.329078022317678 L -0.9689043484268398 4.303792647940081 L -1.0104752181662802 4.326731711441372 M -0.4554244415604006 4.894066039765825 L -0.43993812312108893 4.906669927486183 Q -0.3936305660930888 4.9642854309581 -0.39412482930444326 5.018651633931859 Q -0.39461909251579774 5.073017836905619 -0.44444005371495826 5.114158495515515 Q -0.5052065291169646 5.164337632153343 -0.586835126926321 5.170803222717255 Q -0.6968656025514826 5.179773812475885 -0.7973492713564405 5.114206866702543 Q -0.8588369769063506 5.073570280082515 -0.8611131919974 5.050057884397412 Q -0.8625544073568768 5.036012781317577 -0.8470797148631982 5.023234243416018 L -0.5412629158645186 4.777047890437645 L -0.5001228797227876 4.743075679918867 Q -0.44615017175703037 4.69850663309148 -0.41320642550415865 4.668446070524079 Q -0.3802626792512869 4.63838550795668 -0.3581743712412936 4.6182412423597015 Q -0.3360860632313004 4.598096976762723 -0.31780495039771817 4.581413979317286 Q -0.2995238375641358 4.564730981871849 -0.2924026462220677 4.562976719421553 Q -0.28528145487999956 4.561222456971257 -0.27921104599285573 4.563192502144905 Q -0.2650029186774532 4.567329872096502 -0.22070134886060044 4.604066436710784 Q -0.17639977904374782 4.640803001325067 -0.1567644647072064 4.664581187351939 Q -0.05484783315087238 4.788001295777132 -0.15901893384002608 4.874022672870552 Q -0.2435635952689046 4.943837123844921 -0.3865655065763369 4.912110868854157 Q -0.41993700320594446 4.904754016235003 -0.4554244415604006 4.894066039765825 M -0.801947582852906 5.049445544562609 Q -0.7749465408209448 5.079837346105795 -0.7387384947867502 5.09754787411489 Q -0.6971491430457835 5.117162687429532 -0.6660336717194089 5.124478096272452 Q -0.6349182003930343 5.131793505115373 -0.6025132232312003 5.131061271490001 Q -0.5314355804160869 5.129499539871791 -0.47633057787762145 5.083995478075996 Q -0.4374551308813068 5.051893297494032 -0.4419418011953051 5.004179402943454 Q -0.4461996874056351 4.961354990523578 -0.48079524123668427 4.919460091333375 Q -0.5107157202256998 4.883226665006712 -0.5389661997515702 4.865927823890587 Q -0.555716332499791 4.8556371574993795 -0.5663474241771344 4.850450380527541 Q -0.5750283492345639 4.85761882861866 -0.584529897208566 4.866099723202421 Q -0.6113275354293266 4.888228410788047 -0.6428759476370882 4.914597545665553 Q -0.6744243598448498 4.9409666805430605 -0.7058169362245437 4.9675245311826846 Q -0.7735086987990002 5.024691963991697 -0.801947582852906 5.049445544562609 M -0.5312462924231803 4.821464916506933 Q -0.4779791928539963 4.864446228955478 -0.3786510705130126 4.880183338453393 Q -0.30775633048720064 4.891468655474209 -0.24788173960860127 4.872496441557406 Q -0.21700086535871133 4.862231155458666 -0.19360011085607542 4.84290751277826 Q -0.1701993563534394 4.823583870097854 -0.16136840844075862 4.803912924957896 Q -0.15253746052807782 4.784241979817937 -0.15338683707465028 4.763994948114758 Q -0.15603773282056876 4.7261915375617845 -0.1903216149954824 4.684674069895817 Q -0.22928057201242968 4.637495129366309 -0.27680881290433923 4.614532064517276 Q -0.28171542271940797 4.618583796047038 -0.28995315638450103 4.62475146930165 Q -0.3038523629131349 4.635594217398294 -0.33171653583850313 4.657968816771955 Q -0.38744488168923974 4.702718015519277 -0.45425026147902325 4.757883898655275 L -0.5312462924231803 4.821464916506933 M -0.0040679751979108 5.046334136632167 Q -0.022861884990516224 5.065268292765208 -0.154046394723592 5.199879452580882 Q -0.28523090445666777 5.334490612396556 -0.42587386854269915 5.4872232839555215 Q -0.43645536112510214 5.4987825069342575 -0.4490987316507999 5.498080141770381 Q -0.4617421021764976 5.497377776606505 -0.46927892492659395 5.490032810566762 Q -0.47681574767669027 5.48268784452702 -0.47747542603857174 5.471792761694127 Q -0.47813510440045326 5.460897678861234 -0.45966943558339257 5.443352336957721 Q -0.44120376676633194 5.4258069950542085 -0.4090730448520759 5.394239657336563 Q -0.3769423229378199 5.362672319618918 -0.3407120850944052 5.326898383157032 Q -0.26893486206243566 5.2560516100239685 -0.2079545626162012 5.193478453703401 Q -0.14697426316996676 5.130905297382833 -0.11315771853836987 5.0958547696314636 Q -0.07934117390677303 5.060804241880094 -0.051345662193369335 5.030674798015555 Q 0.011145185022529258 4.964447638497548 0.04626130820441998 4.922803589493891 Q 0.05614170099611626 4.910561113860295 0.06651988255390273 4.910081172230052 Q 0.07689806411168898 4.909601230599809 0.08496071170481523 4.9174586361306964 Q 0.09302335929794159 4.925316041661583 0.09473914912984482 4.937582091588157 Q 0.09645493896174795 4.949848141514732 0.08328894000381226 4.962306048151659 Q 0.07012294104587657 4.974763954788588 0.05729856841537073 4.986871311530162 Q 0.04447419578486478 4.998978668271737 0.029600065189779645 5.013189324385431 Q 0.014725934594694623 5.027399980499126 -0.0040679751979108 5.046334136632167 M -0.04047723924655017 5.514810737949033 L -0.14835139419701093 5.651041904649814 Q -0.16304050378574947 5.669379137839843 -0.17344528974443923 5.682368011349446 Q -0.1776536107994611 5.688404419837762 -0.18101986508021367 5.69260670244381 Q -0.08474939083256533 5.769724527784687 -0.050593073510018405 5.792068240916876 Q -0.0149846559966626 5.814947997706902 -0.010860388781965935 5.820760424102787 Q -0.006736121567269215 5.826572850498671 -0.005670072700568518 5.833071312886122 Q -0.003537974967166957 5.846068237661024 -0.010117471970456093 5.8542817900273905 Q -0.01669696897374523 5.862495342393757 -0.02869881541616154 5.8626023013991615 Q -0.0407006618585779 5.862709260404566 -0.053077489135317124 5.851540423062958 Q -0.11175140202096367 5.796386297979136 -0.16477998978321381 5.759238464987505 Q -0.217808577545464 5.722090631995876 -0.22468604639988687 5.71814932636161 Q -0.23156351525430974 5.7142080207273445 -0.23557377860646617 5.709427667543297 Q -0.23958404195862254 5.704647314359248 -0.24095611394175537 5.698530877663257 Q -0.24454031186596564 5.684997909230518 -0.2336774976407901 5.673003107645237 Q -0.13950643162004306 5.567188029560089 -0.03224532931060864 5.433288024703738 Q 0.07501577299882578 5.2993880198473855 0.10290187788165595 5.264967706328569 Q 0.13078798276448617 5.230547392809752 0.1537397164968901 5.201895465950333 Q 0.20224538685953275 5.139777283392583 0.2206857956449696 5.112842459328404 Q 0.23912620443040655 5.085907635264226 0.24596969762996512 5.0832364746485 Q 0.2528131908295237 5.080565314032775 0.2588516121341642 5.081639414164774 Q 0.2667241593210723 5.0835555810710416 0.2742866577588994 5.092122215514815 Q 0.28818957498514974 5.107649366245173 0.31454934769581533 5.128764961278985 Q 0.36535876465985195 5.169466035764448 0.3855701378359859 5.182207015608379 Q 0.4057815110121199 5.194947995452309 0.4097527666686006 5.2009514346939225 Q 0.4137240223250813 5.206954873935537 0.4147140686167552 5.212765287515096 Q 0.41745821258302074 5.224998160907081 0.41041968090508363 5.233784751810636 Q 0.4033811492271464 5.242571342714191 0.39191434003440495 5.242793311990297 Q 0.3804475308416636 5.243015281266405 0.3690637690810852 5.232955526119823 Q 0.35768000732050664 5.22289577097324 0.3450741659105244 5.2112298976694715 Q 0.3324683245005423 5.199564024365702 0.31779934307504953 5.186559048325503 Q 0.28662725434179626 5.159707029470833 0.2614115458891828 5.14264372470934 Q 0.23478753475959424 5.175879959866267 0.20808752105497885 5.208428146215302 Q 0.1764911374874505 5.24708874362768 0.14397668457062607 5.286895418114435 Q 0.056532088662410496 5.393708593756554 0.01552499106051547 5.44490003641205 Q 0.06327820249288074 5.483152925966056 0.08765385698754946 5.498916135686795 Q 0.11424566305594486 5.515827435298233 0.11657078645140034 5.525843150708328 Q 0.11889590984685589 5.5358588661184225 0.11216340128535074 5.544263431330519 Q 0.09533212988158785 5.56527484436076 0.05659552989418298 5.532990411985341 Q 0.048879013489977696 5.526181900848808 0.04238457673517598 5.5209795078694635 L 0.01174651884343536 5.495809609747009 L -0.010792996952641076 5.4777542458775175 L -0.04047723924655017 5.514810737949033 M 0.8763901536886516 5.533780060234978 Q 0.7495985680094597 5.741993254293226 0.6980710315272275 5.828951466726804 Q 0.6465434950449953 5.915909679160381 0.6226745935228712 5.956671089659564 Q 0.5988056920007472 5.997432500158747 0.5775178592573059 6.034318175791694 Q 0.532446913553366 6.112300578507155 0.5166565349506216 6.141348995846003 Q 0.5008661563478771 6.17039741318485 0.495095661195962 6.174374611939054 Q 0.48932516604404686 6.1783518106932585 0.4828683623991274 6.179646476780812 Q 0.4563705146527871 6.184996718254279 0.4444855186359465 6.160885274907112 Q 0.4398999622871929 6.1513405087769275 0.442519793648476 6.139237761124319 Q 0.4698407704923554 6.008634167815362 0.49310595908369503 5.850308386774423 Q 0.5163711476750348 5.691982605733484 0.5269279982853676 5.627117589550305 Q 0.5460925013114127 5.509318727713303 0.5654603578466465 5.413261005883892 L 0.22284313445159842 6.0039465473807905 Q 0.21510776577872096 6.017000806874451 0.2046271631338264 6.019324935701511 Q 0.19414656048893186 6.021649064528572 0.18551390501731765 6.016533740083604 Q 0.17688124954570345 6.011418415638636 0.17362912186710405 6.000103440366999 Q 0.17037699418850466 5.988788465095362 0.17903252404975037 5.975141523333494 Q 0.25186378146839267 5.861832888687434 0.33969764510880784 5.713603877662643 L 0.4876677619803028 5.463888526703266 Q 0.5263446053446902 5.398617229234963 0.5534495334858178 5.350954396956391 Q 0.5626820702889296 5.3353735065929895 0.577022732473719 5.332776336754711 Q 0.5913633946585085 5.330179166916432 0.6018910232824283 5.336417367459076 Q 0.6254729114000086 5.350390936674596 0.6198278188588274 5.377201013748009 Q 0.6141827263176463 5.404011090821422 0.605746438158558 5.449934426011343 Q 0.5973101499994697 5.495857761201266 0.5872521425659212 5.552199423463969 Q 0.5771941351323728 5.608541085726673 0.5664188942863907 5.671854283004048 Q 0.5556436534404086 5.735167480281424 0.5451179406161322 5.798059572413844 Q 0.5345922277918558 5.8609516645462625 0.524674659695502 5.919936884026389 Q 0.5147570915991482 5.978922103506515 0.5067107707989602 6.027067890768903 Q 0.49866444999877224 6.07521367803129 0.49272322919011424 6.1092448181410814 Q 0.49239575026995386 6.110757661597658 0.4923177993714992 6.111849399909278 Q 0.5378564504661669 6.0273165673241005 0.5933918977554055 5.928793638730553 Q 0.6614037461299302 5.809215452889166 0.694863801161383 5.749387384519245 Q 0.7283238561928357 5.6895593161493245 0.7626572593002585 5.628257379772054 Q 0.7969906624076812 5.566955443394785 0.8300685877434044 5.506331977847349 Q 0.8380534844379877 5.4928566132087315 0.8492905088111703 5.490696223841751 Q 0.8605275331843529 5.488535834474771 0.8693707412284455 5.493775922930592 Q 0.878213949272538 5.499016011386412 0.8812944998278864 5.509660353491387 Q 0.8843750503832347 5.520304695596361 0.8763901536886516 5.533780060234978 M 1.1137354660798329 6.177315995169072 L 1.0572849790884675 6.341660470602138 Q 1.0495272934131512 6.363837990178015 1.0440322660598023 6.379547066544262 Q 1.0420700209440967 6.386639159863293 1.0402922179768366 6.391721508099431 Q 1.1567241957501944 6.432449357894843 1.196365770962702 6.44216743611243 Q 1.2375550596002713 6.451908338026895 1.243377029003626 6.4560191229801855 Q 1.2491989984069805 6.460129907933476 1.2523647489211667 6.465904377369644 Q 1.2586962499495387 6.47745331624198 1.2552214532408033 6.487386996885342 Q 1.2517466565320678 6.497320677528704 1.240462969033962 6.501411417645268 Q 1.2291792815358562 6.505502157761833 1.2137934420727476 6.499083067092822 Q 1.1401212900588973 6.466571229483691 1.0777593543868966 6.449164862968133 Q 1.0153974187148957 6.4317584964525745 1.0076008660606806 6.430327680372046 Q 0.9998043134064653 6.428896864291517 0.9944329638125031 6.425721554502327 Q 0.9890616142185411 6.4225462447131365 0.985734245252786 6.417233806934799 Q 0.9778550307993524 6.405662044365587 0.984112503016794 6.390738236560309 Q 1.0377507103877226 6.259635364220749 1.0943979776626886 6.097693268151059 Q 1.1510452449376547 5.935751172081369 1.1659027306335727 5.894018116273468 Q 1.1807602163294906 5.852285060465566 1.1928816001971725 5.817632686128258 Q 1.2179781075841343 5.7429223523143635 1.226415576324325 5.711389154810771 Q 1.2348530450645154 5.679855957307178 1.2404193223686444 5.675061684142146 Q 1.2459855996727736 5.670267410977114 1.2520376586183266 5.669273023997389 Q 1.260099462646772 5.66846307916611 1.2700797169706037 5.674028430183522 Q 1.288353717438513 5.68405062675424 1.3202339018288372 5.6952022999125065 Q 1.3816841123203314 5.716697553971196 1.4049815492087545 5.721994874754227 Q 1.4282789860971774 5.727292195537259 1.4340201462747477 5.731633996319465 Q 1.4397613064523176 5.735975797101671 1.442626643760242 5.7411266164284385 Q 1.4492813816917522 5.751751491985113 1.4455641573056632 5.76237822011522 Q 1.441846932919574 5.773004948245329 1.4311060863050837 5.777026290984547 Q 1.420365239690593 5.781047633723765 1.4062846859751925 5.775344414238377 Q 1.3922041322597918 5.769641194752989 1.3764370703646371 5.762829469803494 Q 1.3606700084694823 5.756017744853999 1.3425119790593891 5.748628943475573 Q 1.3041861751563106 5.733666898570278 1.2747321201129567 5.725956712862148 Q 1.2606713148264457 5.766153467093426 1.2463100963336733 5.805726571215305 Q 1.2293629826157952 5.8526921818624755 1.21193101354321 5.901043887483139 Q 1.1649685152272344 6.0308519596367125 1.1433116427169763 6.0927642017860375 Q 1.2010655999458244 6.112966508232174 1.2292951784672552 6.119729806927766 Q 1.259996533729409 6.126839166223372 1.2655190162132188 6.135512282226062 Q 1.2710414986970284 6.144185398228752 1.2674858927625086 6.154350094701029 Q 1.2585968779262087 6.179761835881723 1.211330854072776 6.162191072054445 Q 1.2017898077098987 6.158335052913663 1.1939352695267753 6.155587539236989 L 1.1566723236940508 6.142034413002062 L 1.1294124558820346 6.132498924359485 L 1.1137354660798329 6.177315995169072 M 1.4284411973644187 5.600818902643175 Q 1.439396720117966 5.6347279506664005 1.4760168972912815 5.670873128167849 Q 1.4929523027528853 5.687687004851336 1.4868108015932597 5.705244207848906 Q 1.483740051013447 5.71402280934769 1.475020361330287 5.717454737522823 Q 1.466300671647127 5.7208866656979565 1.4575220701483422 5.717815915118144 Q 1.4431990887555879 5.712805743119501 1.4372716338561384 5.700101725102589 Q 1.4313441789566892 5.687397707085676 1.4260869478471094 5.676483830171178 Q 1.42082971673753 5.66556995325668 1.4140590077482034 5.6523116825077135 Q 1.4024588637618134 5.630622723433411 1.3938628518380405 5.615170265453107 Q 1.3770471225811205 5.621733708597111 1.3616403119945693 5.627234293670761 Q 1.3185381307819146 5.642233982860403 1.3062267470454862 5.647780215327806 Q 1.2856462934352904 5.657693851134442 1.274788549476267 5.653895817522568 Q 1.2639308055172436 5.650097783910695 1.259944624610057 5.6422213483174115 Q 1.2559584437028704 5.634344912724129 1.258705957379545 5.626490374541006 Q 1.2646858400876013 5.609395203201267 1.2785800990811227 5.606736205451948 Q 1.292474358074644 5.604077207702629 1.3046592851915348 5.601857417914264 Q 1.3168442123084259 5.599637628125898 1.3283475037870087 5.59640155394765 Q 1.3556968138130974 5.589374226572381 1.3675689895885714 5.582118662228347 Q 1.3935075283708573 5.5657822306058335 1.4043652723298807 5.569580264217707 Q 1.4152230162889041 5.5733782978295805 1.4199716420601831 5.582040001983833 Q 1.4247202678314623 5.590701706138084 1.4284411973644187 5.600818902643175 M 1.6997520697600874 5.807190241906768 Q 1.7131265223419518 5.810184492912983 1.8725648175286902 5.841866482677566 Q 1.8945371324846103 5.846785609330633 1.898914522080117 5.865321613168879 Q 1.899755782803878 5.870525953520433 1.898365594836707 5.876735520790584 Q 1.896975406869536 5.882945088060735 1.8883668648226837 5.887789421802234 Q 1.8797583227758314 5.892633755543732 1.860281240459752 5.887771657549566 Q 1.8408041581436727 5.882909559555399 1.8226281609154815 5.877837146380292 Q 1.8044521636872906 5.8727647332051855 1.788796353537458 5.868758135498508 Q 1.7608283463832592 5.861493502836709 1.7406597299745266 5.8574797853481675 Q 1.7122428245429453 5.966485859840278 1.6834766273760977 6.094976136430332 Q 1.6526786170264618 6.232541934415222 1.641528598959643 6.283466088896353 Q 1.6303785808928244 6.3343902433774835 1.6209609579485713 6.3809370434651 Q 1.5958734260987273 6.499717293226565 1.5844738988487217 6.557357188328078 Q 1.5813156816476706 6.573704532570564 1.5716698384618382 6.579821437070501 Q 1.562023995276006 6.5859383415704364 1.552709644370779 6.58385305961968 Q 1.5433952934655522 6.581767777668924 1.5362161333881177 6.572385718432 Q 1.5290369733106832 6.563003659195076 1.5323520369247066 6.548196229550869 L 1.5458831951115726 6.485515960292639 L 1.6527851321384865 6.03042097080627 Q 1.6813374542334616 5.902886012257778 1.6905055327925351 5.846251344074863 Q 1.6652965422270853 5.840105995649462 1.6298927460304005 5.83468785063002 Q 1.5881724450276284 5.8283571766641895 1.5695152288877243 5.825434229082597 Q 1.5508580127478202 5.822511281501004 1.5448195314543698 5.813635395614311 Q 1.5387810501609196 5.804759509727618 1.540866332111676 5.795445158822391 Q 1.5429516140624326 5.786130807917164 1.552625971577715 5.778766287097308 Q 1.5623003290929975 5.771401766277451 1.5790968180268141 5.775914537334359 Q 1.5958933069606305 5.780427308391266 1.608205503964997 5.783685343346389 Q 1.6205177009693632 5.786943378301512 1.629725114338654 5.78950631927305 Q 1.6389325277079447 5.792069260244587 1.6459904754837216 5.794150982304411 Q 1.6530484232594984 5.796232704364236 1.6603986693136337 5.798129065681638 Q 1.6677489153677691 5.80002542699904 1.6773020957833866 5.802164177717765 L 1.6997520697600874 5.807190241906768 M 2.011107567201393 6.4342141622923705 Q 2.0047609342713213 6.545214531539717 1.9996602530300287 6.626835630125738 Q 1.9986130353331732 6.643452288477126 1.9890951364712548 6.65068190745926 Q 1.9795772376093361 6.657911526441395 1.9695855842747367 6.656986243614332 Q 1.9595939309401371 6.656060960787269 1.9527388703124875 6.64780669198211 Q 1.9458838096848377 6.6395524231769505 1.9472830178623475 6.624443093744142 L 1.9812251001038728 6.257920005567612 Q 1.9988280416918978 6.067834893348401 2.0035595667178536 5.915884019814739 Q 2.0040833464440473 5.894303112731639 2.0180103926925472 5.887236016616639 Q 2.0236877178862076 5.884320725775444 2.029604194191368 5.884131258161924 Q 2.0355206704965285 5.8839417905484055 2.056045606137667 5.8799435835188625 Q 2.1075565083546706 5.870458031542476 2.157027377304029 5.87503930993013 Q 2.206498246253388 5.879620588317782 2.2378946405529954 5.893588564319156 Q 2.269291034852603 5.90755654032053 2.2901224834712024 5.93209821574802 Q 2.3344389525642657 5.984376767430803 2.3258180247608995 6.077469732645852 Q 2.3147146308361455 6.197369572661046 2.209823386235672 6.3002273163280265 Q 2.1930440341393833 6.31686182392516 2.1743602268962006 6.332828390808008 Q 2.208584479514342 6.483471011170546 2.2588386257642705 6.641497019637246 Q 2.26809884075788 6.668899754657631 2.2435753563316676 6.6789181818608485 Q 2.23745576916203 6.681300939230744 2.229657405583806 6.680578767268158 Q 2.212111087532802 6.67895388035234 2.2066506873323424 6.658293537468217 Q 2.1952515847084237 6.611521205244618 2.1864383503188765 6.5686751704342825 Q 2.1776251159293296 6.525829135623946 2.1690961683989443 6.4852215263176465 Q 2.154240487717422 6.4120754857692415 2.1399260942523077 6.359625828351983 Q 2.081934177128842 6.40193847530219 2.011107567201393 6.4342141622923705 M 2.0139332700583283 6.38777597130368 Q 2.095094599178158 6.3500668288594255 2.169486933170874 6.279286721701764 Q 2.2693596977913337 6.182846324436775 2.2791090192862398 6.077568416130751 Q 2.289219426762439 5.968391326035614 2.2156318077491197 5.929624161616207 Q 2.1753404904319833 5.908196169266305 2.109343063748794 5.914865455641926 Q 2.078095378187598 5.917870676222913 2.0576967542888056 5.9258132007892295 Q 2.0377747238353563 6.071933150884968 2.0285670313123894 6.171362286507325 Q 2.0187725740698217 6.277127592536988 2.018271533095225 6.2851922228508625 Q 2.017770492120628 6.293256853164737 2.0174048583890154 6.299859290307694 Q 2.0170392246574034 6.306461727450651 2.016872154039949 6.313574130191078 Q 2.016705083422495 6.320686532931505 2.0162175148210904 6.333913975091251 Q 2.015729946219685 6.347141417250996 2.0147639045175145 6.368189790862797 Q 2.0144388587832447 6.3770080856359606 2.0139332700583283 6.38777597130368 M 2.5569664545729847 6.417861085113402 L 2.5642786748910877 6.591476451717144 Q 2.565135090152865 6.614956030386167 2.5657417176299573 6.631587398610058 Q 2.566498505288201 6.638906924959508 2.566694767119025 6.644287661737825 Q 2.689962555131395 6.639791481613495 2.7304199240362848 6.634397333778502 Q 2.7723269246233677 6.628460502100709 2.7792465030069806 6.630167345871776 Q 2.786166081390594 6.631874189642843 2.791218238141557 6.636098190797081 Q 2.8013225516434828 6.644546193105557 2.8017061543128206 6.655063087717724 Q 2.8020897569821583 6.6655799823298905 2.793072307853952 6.673500927316216 Q 2.7840548587257463 6.681421872302542 2.7673878065326143 6.681050184001758 Q 2.686933966946721 6.677617216923302 2.622516782476181 6.684130200949163 Q 2.558099598005641 6.6906431849750225 2.550317676744184 6.6921515514512935 Q 2.542535755482727 6.6936599179275635 2.5363766769094513 6.692660048012973 Q 2.530217598336176 6.691660178098383 2.525183283569833 6.687925334833083 Q 2.5136293383857136 6.680020016367405 2.514018868671118 6.663842122063212 Q 2.516199903449904 6.52220786239083 2.5099462878404686 6.350758022318068 Q 2.5036926722310326 6.1793081822453075 2.5023225515673593 6.13503047230411 Q 2.500952430903686 6.0907527623629125 2.499614282057159 6.054065920692564 Q 2.4957634067554055 5.97534718454279 2.4921311253334615 5.942907394851517 Q 2.488498843911518 5.9104676051602425 2.4919355822784883 5.9039747377193965 Q 2.4953723206454583 5.89748187027855 2.500646005516054 5.894350661114098 Q 2.507858479957781 5.890658926122227 2.519180479341836 5.89220519203171 Q 2.5398500045695735 5.894879933900222 2.5736018989062943 5.893648836961416 Q 2.6386598981350455 5.891275853006909 2.6622859248331254 5.8877201483636625 Q 2.6859119515312053 5.884164443720416 2.692840450907129 5.8861158664359525 Q 2.699768950283052 5.888067289151488 2.7043141071604566 5.891819974401409 Q 2.714382736693142 5.899289660932009 2.71479310233941 5.910540292377583 Q 2.7152034679856785 5.921790923823156 2.7066662557541004 5.929449447880392 Q 2.698129043522522 5.937107971937628 2.682938385988514 5.936927336627453 Q 2.6677477284545064 5.9367467013172766 2.6505825973801262 5.936148276056644 Q 2.633417466305746 5.935549850796012 2.613815466778986 5.935285214402951 Q 2.5726726781543348 5.935316467444246 2.542434098963282 5.9388684599353985 Q 2.543986351625253 5.981425196273003 2.545031604413666 6.0235106167062895 Q 2.5463623289560045 6.073422563362584 2.547746579452204 6.124801983685692 Q 2.5513105454483314 6.262798034320062 2.5537013713874592 6.3283451914377515 Q 2.6148461075047065 6.326114943360207 2.643599371044325 6.322127318933978 Q 2.674780582044013 6.317561326695709 2.6830836330115546 6.323625986505667 Q 2.691386683979096 6.329690646315625 2.6917792076407436 6.3404521198722605 Q 2.6927605167948636 6.367355803763849 2.642341570265011 6.3682152124018705 Q 2.632051412612693 6.36810073618996 2.623735728500747 6.368404049928506 L 2.584096097512151 6.3693600927938165 L 2.55523578206481 6.370412769886418 L 2.5569664545729847 6.417861085113402 M 3.4653426166070176 5.9446298144597645 Q 3.49409125924762 5.9992647240549255 3.5104009808360335 6.069597185170627 Q 3.526710702424446 6.139929646286328 3.528777605834899 6.2030130318513885 Q 3.5308445092453513 6.26609641741645 3.5212738944694046 6.322331516002324 Q 3.511703279693458 6.378566614588198 3.491466073575942 6.426723329746055 Q 3.4712288674584264 6.474880044903913 3.4417348062523243 6.512370342997317 Q 3.38080483015046 6.5898111320817865 3.2930680650976534 6.610156818673434 Q 3.2792399879969394 6.613363475799291 3.2731413048181657 6.605481998530553 Q 3.267042621639392 6.597600521261814 3.2641676876644854 6.585202934895657 L 3.2546582906705632 6.544195533838367 Q 3.247802678884247 6.514632058657529 3.237778430808773 6.472487869179934 Q 3.227754182733299 6.4303436797023386 3.21551844698482 6.378662885327699 Q 3.2032827112363407 6.326982090953059 3.1896855501738073 6.271597229003253 Q 3.176088389111274 6.216212367053445 3.16227007928144 6.159873844613934 Q 3.148451769451606 6.103535322174422 3.1355560755276737 6.052258804497685 Q 3.1079264321209026 5.94611227595269 3.0898476946712012 5.885485769435958 Q 3.079944485358723 5.853614184704258 3.1100538562049143 5.842612207808174 Q 3.154281518339623 5.825321443549818 3.18384499352046 5.818465831763502 Q 3.3755307519510485 5.774014929536098 3.4653426166070176 5.9446298144597645 M 3.3084229062565482 6.559363758940212 Q 3.361862426390247 6.544961532608324 3.4049839961342205 6.48823198886824 Q 3.4850353186919856 6.382740884709554 3.4804864222396015 6.211447903869727 Q 3.478882570845324 6.1525281497695605 3.4623517004896103 6.081242028164155 Q 3.4458208301338966 6.00995590655875 3.416198056803437 5.961302129505815 Q 3.386575283472978 5.91264835245288 3.351621219950633 5.887590870544349 Q 3.28593549968911 5.8405165280005535 3.20392069757453 5.859535321988398 Q 3.168158429210614 5.867828400762168 3.1475165978409643 5.880654680711364 Q 3.1550911173981233 5.930652791000345 3.1756579527570716 6.019343216542856 Q 3.2003160403110793 6.125676361144898 3.213840647826662 6.181831755653809 Q 3.2273652553422445 6.237987150162719 3.240575406062002 6.291703106255544 Q 3.2537855567817595 6.345419062348368 3.2659452508568396 6.394605131115097 Q 3.2781049449319197 6.443791199881825 3.2881257048809456 6.482670131192405 Q 3.3009453571314786 6.5314519232612325 3.3084229062565482 6.559363758940212 M 3.811656655027849 6.184687919867426 L 3.873997267562605 6.34688968346981 Q 3.8823025994170703 6.368867980136354 3.8881855428139835 6.384435940275157 Q 3.891238840199057 6.391131130236484 3.893142145415705 6.396167823222568 Q 4.008528202915064 6.3525648309866245 4.04514811892522 6.334540478543854 Q 4.082968650730067 6.315539161679626 4.090071098245682 6.314948297944286 Q 4.097173545761295 6.3143574342089455 4.103309607289538 6.3167480873642425 Q 4.115581730346023 6.321529393674836 4.1193018269058355 6.331373839056726 Q 4.123021923465648 6.341218284438615 4.117004111113145 6.35160296992958 Q 4.1109862987606425 6.361987655420545 4.095072283127904 6.366954836456351 Q 4.017730408806625 6.389378931611919 3.958760828822856 6.416110584246399 Q 3.8997912488390867 6.442842236880879 3.8928977193176584 6.44675538378375 Q 3.88600418979623 6.450668530686621 3.8798481056718974 6.451686674572339 Q 3.8736920215475648 6.452704818458057 3.86772898776629 6.450772046483313 Q 3.8542562489151146 6.446967704594177 3.8494620956262757 6.431511570141991 Q 3.806325294460811 6.29658849275765 3.745679069148517 6.136101138973818 Q 3.685032843836223 5.975613785189987 3.6696027733258934 5.934089024476456 Q 3.654172702815563 5.892564263762924 3.6411956217929613 5.858223175221448 Q 3.6124223921700027 5.784850360646349 3.5986266410938637 5.755266400874413 Q 3.5848308900177246 5.725682441102478 3.586015638161288 5.7184322776530285 Q 3.5872003863048514 5.711182114203579 3.5911989128091264 5.706531521903613 Q 3.5968559362886454 5.700730937435221 3.6080793144292365 5.698582823977169 Q 3.6285215182412394 5.6945208268683825 3.6601153196993974 5.6825819123275885 Q 3.721013516712948 5.659569221980841 3.7422691013614453 5.64865902975985 Q 3.763524686009942 5.637748837538859 3.7707136473990404 5.637386914393796 Q 3.7779026087881387 5.637024991248731 3.78340776138886 5.639130790970444 Q 3.7953338289514087 5.642996334919931 3.7993134671316735 5.653527602072651 Q 3.803293105311938 5.66405886922537 3.7976466602665044 5.674041586379089 Q 3.7920002152210706 5.6840243035328095 3.777546357003475 5.688701341917989 Q 3.7630924987858796 5.693378380303168 3.746634088099104 5.698289648495666 Q 3.7301756774123285 5.703200916688164 3.711514374696272 5.70920626420578 Q 3.6725332722889146 5.722366951409435 3.645009777829468 5.735384077624218 Q 3.6600631918156865 5.77521974033233 3.6744856968743838 5.814770549606857 Q 3.6916766458845696 5.861647457770233 3.7093866781356595 5.909898009475267 Q 3.7568068592389845 6.039539585632121 3.7799925773327 6.100895663826225 Q 3.837227724901827 6.0792671954552215 3.8632045480726465 6.06631127130079 Q 3.891297749399263 6.052032327230965 3.901102149588972 6.055129824753181 Q 3.910906549778681 6.058227322275398 3.914713160211978 6.068300708247564 Q 3.9242296862952193 6.0934841731779805 3.876721869204323 6.110390268754581 Q 3.8669333366657415 6.113565970260357 3.8591493565963404 6.116507441958813 L 3.821887953224578 6.13006480828267 L 3.7948729635719505 6.140273445353784 L 3.811656655027849 6.184687919867426 M 4.4306712643921795 5.2941495490912 Q 4.443631311842681 5.2979871818034185 4.448786372731615 5.317210442676713 Q 4.453941433620547 5.336433703550009 4.464575109719867 5.368371515015317 Q 4.475208785819187 5.400309326480626 4.489104304515654 5.440866672545935 Q 4.502999823212121 5.481424018611245 4.519472357604436 5.529011580452553 Q 4.535944891996752 5.576599142293862 4.553705934236992 5.62770181202317 Q 4.5714669764772315 5.678804481752477 4.589959361806759 5.732041748643118 Q 4.608451747136287 5.7852790155337575 4.625841689369848 5.837182287885719 Q 4.664754308087372 5.953378799362968 4.6877179569017695 6.029412837624197 Q 4.69582113349323 6.054865711650837 4.674522707565134 6.067887250202342 Q 4.651971433053033 6.0816747616098175 4.631339770621516 6.0638816161428855 Q 4.6140035510565935 6.048663427377332 4.539468982141288 5.969449160019148 Q 4.464934413225982 5.890234892660963 4.425978834357696 5.849508515751181 Q 4.387023255489409 5.808782138841398 4.345445174234521 5.7656430971395825 Q 4.303867092979631 5.722504055437767 4.262045573860726 5.68037442445594 Q 4.175780033236311 5.593702497700253 4.137127324338573 5.5591018446437666 Q 4.098474615440835 5.524501191587279 4.092985143306377 5.515522443401905 Q 4.0874956711719195 5.506543695216532 4.089976566000082 5.49699486635398 Q 4.092457460828246 5.487446037491427 4.1015985009229645 5.481283624876977 Q 4.110739541017684 5.475121212262527 4.124221093962904 5.476058274957443 Q 4.1377026469081235 5.476995337652358 4.1549468635943025 5.496285799064548 Q 4.1721910802804825 5.515576260476738 4.2007843117450205 5.546860786315725 Q 4.2293775432095595 5.578145312154712 4.262879309207307 5.614174021623091 Q 4.296381075205054 5.65020273109147 4.333224800257385 5.689351675598558 Q 4.3700685253097165 5.728500620105645 4.407121058459381 5.767521902470071 Q 4.444173591609047 5.806543184834496 4.480204827617418 5.843894002420248 Q 4.516236063625789 5.881244820005999 4.548658129872947 5.913630759443717 Q 4.600389750434249 5.96633931435899 4.6349929300307275 5.998539189044751 Q 4.62790899158609 5.964431121154192 4.608894071264609 5.908931594959557 Q 4.581196066247654 5.8289074595036 4.568821636339058 5.794591613012941 Q 4.554636163590584 5.75449839933029 4.529365798278675 5.688767276366276 Q 4.504095432966765 5.623036153402263 4.487391347131738 5.5778850291956 Q 4.470687261296711 5.532733904988936 4.456211834496231 5.493104823688943 Q 4.441736407695751 5.453475742388949 4.42893247517118 5.4179881932689575 Q 4.416128542646609 5.3825006441489665 4.405763106751155 5.35757030511428 Q 4.3953976708557 5.332639966079594 4.395069998545304 5.318497359075687 Q 4.3947423262349075 5.304354752071781 4.406226771588292 5.297333334225382 Q 4.417711216941677 5.2903119163789825 4.4306712643921795 5.2941495490912 M 5.182090085769453 5.715437664128633 Q 5.103724729295215 5.781199101657096 4.998827800496838 5.731201898777278 Q 4.893930871698462 5.68120469589746 4.761149404535727 5.522974167514069 Q 4.656371611727219 5.398114532557506 4.627630943785383 5.277819733495811 Q 4.614017076964457 5.218954519554375 4.623403939930125 5.169223199691505 Q 4.632790802895794 5.119491879828636 4.671973481132913 5.086611161064404 Q 4.711156159370033 5.053730442300172 4.757550877792482 5.0496228815376165 Q 4.803945596214931 5.045515320775061 4.855476989734634 5.068088518875037 Q 4.956531276950775 5.112364395692979 5.078735322878695 5.256467289109243 Q 5.207232329335655 5.408069259700076 5.234098227983849 5.529937298894032 Q 5.260455442243693 5.649676226600169 5.182090085769453 5.715437664128633 M 4.748877210195597 5.097158224647857 Q 4.721972262055028 5.100885543058611 4.700599892107508 5.118820480566375 Q 4.679227522159989 5.136755418074137 4.671261761438815 5.1622903661234165 Q 4.663296000717641 5.187825314172696 4.665596928390829 5.219122215818523 Q 4.667897856064016 5.250419117464349 4.679394356955121 5.285820833258584 Q 4.690890857846225 5.321222549052819 4.708878270814267 5.35788677213886 Q 4.7464866427148875 5.432400385719404 4.79856089109269 5.494455249338957 Q 4.850635139470492 5.5565101129585095 4.890562641667218 5.594571844805442 Q 4.9304901438639455 5.632633576652375 4.964382942911807 5.656270059556797 Q 4.9982757419596675 5.67990654246122 5.026860152092517 5.690744762955133 Q 5.055444562225367 5.701582983449046 5.0789513321537765 5.702943779861265 Q 5.1218875665317904 5.704613935806862 5.155633413817347 5.676295613426185 Q 5.255371140239106 5.592599238389958 5.122880625251609 5.391311863964001 Q 5.092514446452457 5.345226607442543 5.056015275384027 5.301731959830047 Q 5.019516104315597 5.25823731221755 4.989517049003177 5.227818862693342 Q 4.959517993690755 5.197400413169134 4.928377042751081 5.172093671951502 Q 4.897236091811406 5.14678693073387 4.866024360420922 5.128249037270955 Q 4.834812629030437 5.109711143808038 4.805297393683301 5.1015710250225705 Q 4.775782158336166 5.093430906237103 4.748877210195597 5.097158224647857 M 5.355421549334895 5.234752227413171 Q 5.366814843515724 5.221957883967813 5.37961446982007 5.227457022592789 Q 5.3924140961244165 5.232956161217765 5.415078361656193 5.253138568052376 Q 5.43774262718797 5.273320974886986 5.463016357105782 5.284684804806806 Q 5.488290087023595 5.296048634726624 5.511581216535111 5.297126394193193 Q 5.558488998249027 5.298916360456464 5.593645448864155 5.259436672110788 Q 5.628801899479284 5.219956983765112 5.6205739144412 5.170682558968575 Q 5.612345929403117 5.121408134172038 5.557878581592878 5.072905253230796 Q 5.485133600289271 5.008126237745513 5.37345960170097 5.019448621866572 Q 5.3417501950645265 5.02267215162145 5.309592534370748 5.027135085741877 Q 5.277434873676969 5.0315980198623045 5.244994361700791 5.03417050423542 Q 5.212553849724613 5.036742988608537 5.179713037958569 5.0324047193741706 Q 5.107731676221774 5.022706299994822 5.050339907052597 4.971599237526534 Q 4.99148592720395 4.919190084294722 4.986220868520758 4.852235834260121 Q 4.980995839816552 4.7859726595862675 5.0272200619216285 4.734064180465101 Q 5.066933830209088 4.6894667547412805 5.122299919026917 4.687646507143853 Q 5.184982344101081 4.6864425578081885 5.243385428462899 4.743038193183476 Q 5.245984327130957 4.74600792738039 5.249437062505204 4.748754855263384 Q 5.25288979787945 4.751501783146377 5.2612148078989325 4.760553732093066 Q 5.269539817918415 4.769605681039755 5.270645925199534 4.782716097904477 Q 5.271752032480652 4.7958265147692 5.264753294626715 4.8036858971713485 Q 5.257754556772777 4.8115452795734965 5.245743439347151 4.8106808771493315 Q 5.233732321921525 4.809816474725166 5.2236622499401735 4.797571985267643 Q 5.201208700021305 4.769056644125067 5.187500474901279 4.756849543217037 Q 5.173792249781252 4.744642442309006 5.156968902678871 4.738509631862268 Q 5.140145555576489 4.73237682141553 5.122503118887917 4.733052048199313 Q 5.084819496737647 4.734888144373706 5.056824545321897 4.7663256739822994 Q 5.025899889688219 4.8010531776197 5.030129451776749 4.844145312718996 Q 5.0349647464090665 4.891709422673661 5.07334777674514 4.925889305216147 Q 5.111730807081214 4.9600691877586325 5.1427959761779185 4.972657689913496 Q 5.173861145274623 4.9852461920683595 5.205076985015757 4.988465146874136 Q 5.236292824756891 4.991684101679912 5.267636678723467 4.9881350492341525 Q 5.298980532690043 4.984585996788394 5.3304471180230735 4.980163092646953 Q 5.361913703356104 4.9757401885055135 5.393805886327481 4.9726794200960756 Q 5.425698069298859 4.9696186516866385 5.4578077757251675 4.973305875539243 Q 5.529423584792095 4.98267877222771 5.587546459301008 5.03443688007776 Q 5.655539255896339 5.094984100581593 5.664865423927059 5.166210175576631 Q 5.674151561978792 5.236745175210921 5.6223934541287415 5.294868049719834 Q 5.574216095878381 5.348969844860205 5.5022694812615836 5.345856656397458 Q 5.4345093487882625 5.343194363421539 5.385525291026035 5.299574322843509 Q 5.336541233263807 5.2559542822654794 5.355421549334895 5.234752227413171 M 5.868593307241903 4.585136884814783 Q 5.97198199798499 4.642075086174956 6.027672922669509 4.672921305309091 Q 6.042226692679529 4.6810081945853685 6.044789217491977 4.692498993792616 Q 6.047351742304425 4.703989792999862 6.042222170903586 4.712613990464703 Q 6.0370925995027465 4.7212381879295435 6.026568296911602 4.724090812452687 Q 6.016043994320458 4.72694343697583 6.0017404473056 4.718435855140292 L 5.906663928912724 4.661885458233478 L 5.775999012546801 4.584737022292241 L 5.6590464810723775 4.515175029636956 Q 5.544618104953517 4.4471143749526485 5.512360852090006 4.430490989827267 Q 5.480103599226494 4.413867604701885 5.4636168359842685 4.405200516004216 Q 5.447130072742043 4.396533427306547 5.429762047665765 4.387911696675394 Q 5.412394022589485 4.379289966044241 5.395782147849679 4.370833223626203 Q 5.379170273109872 4.362376481208164 5.375157249743946 4.35571816508143 Q 5.3711442263780205 4.349059848954695 5.3711621776896195 4.34280578133427 Q 5.3711801290012176 4.336551713713846 5.373341419824651 4.3310029570123945 Q 5.375502710648085 4.325454200310943 5.381054481866832 4.306544960548154 Q 5.399211133494053 4.247293085904223 5.422982318034528 4.207327292774473 Q 5.446753502575003 4.167361499644724 5.4733648416780065 4.145601142617441 Q 5.49997618078101 4.123840785590156 5.532350596957432 4.116329162067893 Q 5.600704230077554 4.100032874643619 5.6810565088963125 4.147825466719732 Q 5.790436574304047 4.212883445462085 5.836186274543932 4.343747881197848 Q 5.873024692125577 4.44937871156265 5.868593307241903 4.585136884814783 M 5.827876845126665 4.562627777952089 Q 5.838513101264088 4.293874847096582 5.661822226374671 4.188781189128166 Q 5.5646422451854916 4.130979677245538 5.496840857048235 4.181775769046469 Q 5.446450385220085 4.219577256835489 5.428312644479503 4.305607925629224 Q 5.4262530324910685 4.315773337780575 5.42469386649296 4.325097364813404 Q 5.49656350339741 4.371831236881734 5.5743916268606055 4.41812249098687 L 5.701440779757282 4.493689835526064 Q 5.709433938383231 4.498444072434159 5.717256627445083 4.5025273937878305 Q 5.725079316506935 4.506610715141503 5.733828625469358 4.511529940262712 Q 5.74257793443178 4.5164491653839205 5.756625777100491 4.523950373887824 Q 5.770673619769202 4.531451582391727 5.791788001163293 4.542871124036188 Q 5.806762463732574 4.5512082363076285 5.827876845126665 4.562627777952089 M 5.572466177284121 3.917699414773772 Q 5.5844033305269924 3.8903309508846236 5.623437041319712 3.9073560710834725 Q 5.676379315728228 3.9304476134221416 5.734636345362156 3.956658288734083 Q 5.792893374996083 3.982868964046024 5.840255998258491 4.004060877285918 Q 5.8876186215208985 4.025252790525811 5.9506844617688825 4.053293890052598 Q 6.081751439031747 4.111528690510624 6.272490640839804 4.195790398858844 Q 6.313227810526492 4.107289157859352 6.340963330091094 4.021661327530076 Q 6.346213554044976 4.00472668305498 6.3586519782868 3.999471545904678 Q 6.3710904025286235 3.9942164087543763 6.380512332719969 3.9983259205265123 Q 6.389934262911316 4.002435432298649 6.393366106057384 4.013544583532569 Q 6.396797949203451 4.02465373476649 6.389051436231667 4.039965569678531 Q 6.362704687958066 4.0893519713863515 6.339214633335249 4.149329656101718 Q 6.315724578712433 4.209307340817085 6.312235574089467 4.222204015210175 Q 6.308746569466501 4.235100689603264 6.305178773150783 4.240219753791907 Q 6.301610976835065 4.245338817980549 6.296064759727821 4.248259923110853 Q 6.284132280097351 4.254803769019581 6.2697177718702015 4.247448638121335 Q 6.167078842179278 4.196272975408193 5.99770843040627 4.122399609028129 Q 5.828338018633262 4.048526242648065 5.788084803966045 4.0312362265285175 Q 5.747831589298828 4.01394621040897 5.713790456541913 4.000166709336232 Q 5.646156854370526 3.972803398227523 5.590221933141575 3.9553487883038714 Q 5.5752776330730285 3.950432665154618 5.571621458255739 3.9392256684023135 Q 5.567965283438449 3.9280186716500083 5.572466177284121 3.917699414773772 M 5.758608333471685 3.4242506788544844 Q 5.7618652234671295 3.412963576349792 5.773985217217243 3.406271732592085 Q 5.786105210967357 3.3995798888343782 5.8175295961338405 3.402788673663826 Q 5.848953981300323 3.4059974584932746 5.907637940068933 3.4109585464350314 Q 5.966321898837544 3.4159196343767877 6.033276963233239 3.420465354658182 Q 6.100232027628934 3.4250110749395763 6.171591718744471 3.42929938928127 Q 6.242951409860009 3.4335877036229645 6.310313585505135 3.4367225360912723 Q 6.468435698676912 3.443120726329114 6.5424638708846 3.442575044730683 Q 6.561221858077436 3.4428931240967042 6.56946496058468 3.453168193626809 Q 6.577708063091923 3.4634432631569134 6.57512969184553 3.4723788859731286 Q 6.572551320599136 3.4813145087893433 6.565274657162428 3.487111354575712 Q 6.55799799372572 3.4929082003620806 6.530973568092439 3.4912237491246767 Q 6.503949142459159 3.4895392978872732 6.443379332753126 3.4858171344780207 Q 6.382809523047094 3.4820949710687676 6.3132315714633 3.4778113239137136 Q 6.310274092087317 3.477467397352548 6.307786908649029 3.4772591745411927 Q 6.29714816584885 3.5088321870550576 6.280320900872388 3.5671488833293017 Q 6.260508153400101 3.635812090232848 6.2519401484155 3.6725676924346438 Q 6.254626220291862 3.6738522108712 6.257312292168225 3.675136729307757 Q 6.387301369112287 3.743721683951377 6.459083606336771 3.7792085698639863 Q 6.481711661661141 3.7908324204812605 6.475876400419303 3.811055145802168 Q 6.469769731677845 3.8322184629984664 6.44771967292114 3.8309504573837736 Q 6.441198714481668 3.830597196449328 6.429251761974484 3.822564828015383 Q 6.417304809467302 3.8145324595814385 6.387464353356837 3.797006573809769 Q 6.357623897246372 3.7794806880381002 6.318784633631427 3.757829839457141 Q 6.279945370016482 3.7361789908761818 6.233685482804087 3.711113290579116 Q 6.187425595591691 3.6860475902820498 6.138479636502932 3.659697371548427 Q 6.089533677414174 3.633347152814805 6.039882274418873 3.6067933784564667 Q 5.990230871423571 3.580239604098129 5.943835280461365 3.5556441997387584 Q 5.897439689499159 3.531048795379388 5.8568186863524705 3.5093932796117886 Q 5.816197683205781 3.4877377638441893 5.792430147567945 3.4747662101020933 Q 5.750330404733264 3.4529387310539112 5.758608333471685 3.4242506788544844 M 6.21078099745621 3.651011620886082 Q 6.222975666192565 3.615811944620463 6.240481449918079 3.555143768657741 Q 6.255001751147768 3.5048221033243205 6.262275903322533 3.4743160520623766 Q 6.216629194246227 3.4718432255212557 6.168631005481443 3.468691880231084 Q 6.094078687021074 3.4639917874533195 6.0241661432493965 3.45910214061076 Q 5.909683186026613 3.4515407787890044 5.823436653812122 3.444994683828882 Q 5.874399500401473 3.4714174216240496 5.961682834823348 3.5185094894073727 Q 6.078241552385595 3.58067185186821 6.139206983043081 3.613037551535185 Q 6.175934582125037 3.6322959937102537 6.21078099745621 3.651011620886082 M 5.9157972647803865 2.725821956364044 Q 6.157206491384384 2.7597398821473385 6.257463808536137 2.7725963234552498 Q 6.35772112568789 2.785452764763161 6.404603737435097 2.7912179847517207 Q 6.451486349182303 2.7969832047402803 6.49378776823078 2.801914212375324 Q 6.583245682218859 2.812398815602211 6.61617309147316 2.8153875153378265 Q 6.64910050072746 2.8183762150734424 6.655038546611845 2.8220986249519573 Q 6.660976592496229 2.825821034830472 6.664723572841442 2.831236439882718 Q 6.6801347430157305 2.8534458264764933 6.6627056107410745 2.8739114117052744 Q 6.655758861349484 2.881903442761142 6.643608608845342 2.8842932923777234 Q 6.512868876834453 2.910955190934204 6.358282740463576 2.9523248462909795 Q 6.2036966040926975 2.9936945016477554 6.139957474465304 3.0097020240542784 Q 6.024206218921226 3.03877945286595 5.928336204064067 3.05905604136387 L 6.6064286552199905 3.139595462678947 Q 6.621479390482482 3.1415254853450256 6.627765863588291 3.150227488706027 Q 6.634052336694101 3.1589294920670277 6.632776031382662 3.168882397643836 Q 6.6314997260712225 3.1788353032206444 6.622399321926466 3.186304415901396 Q 6.613298917781708 3.193773528582147 6.5973394261366725 3.1912334807355958 Q 6.464447427087506 3.1692572360324816 6.293548755719868 3.1473421399531363 L 6.005642755376093 3.1104226741149215 Q 5.930389079063639 3.1007725607845282 5.875887711491668 3.0947705908465983 Q 5.8579239306945015 3.0924670154064398 5.849857355609605 3.080329048135647 Q 5.841790780524708 3.068191080864854 5.8433472504167066 3.056053391137039 Q 5.846833742974784 3.0288649661467333 5.8736863035199915 3.023425545713744 Q 5.900538864065199 3.0179861252807547 5.946046333548216 3.007536537053395 Q 5.991553803031232 2.9970869488260354 6.047269494661941 2.983998475799374 Q 6.102985186292649 2.970910002772712 6.1653860293559015 2.955717848555215 Q 6.227786872419154 2.940525694337717 6.289702207893294 2.9252712813245396 Q 6.351617543367433 2.910016868311362 6.4097047955361885 2.8957520370979224 Q 6.467792047704943 2.881487205884483 6.515185570136894 2.869799000674665 Q 6.5625790925688445 2.8581107954648477 6.596179063342276 2.8500821862519095 Q 6.597697844905293 2.849783455049837 6.598731118879199 2.849422465052084 Q 6.503073561047689 2.8411038018117134 6.3906100139842765 2.829149557955206 Q 6.253871087465235 2.814082374314701 6.18568211920459 2.8070654194814013 Q 6.117493150943946 2.800048464648101 6.047604906121407 2.7928136040299214 Q 5.977716661298868 2.7855787434117416 5.908948797255591 2.7792277911664307 Q 5.893412554403988 2.777235509704672 5.886976715697141 2.767774115562162 Q 5.880540876990295 2.758312721419652 5.881848311699574 2.748117062048287 Q 5.883155746408853 2.7379214026769225 5.891708384168819 2.730875538789604 Q 5.900261021928783 2.7238296749022854 5.9157972647803865 2.725821956364044 M 5.8956028413964745 2.4576262492460845 Q 5.895438093100364 2.443921710620079 5.889569066553334 2.281472109282042 Q 5.889298408638295 2.2589575101107466 5.906329056169592 2.2504309620033904 Q 5.911199998779436 2.2484143320939216 5.917562820284367 2.2483378418135844 Q 5.923925641789298 2.2482613515332472 5.930621445214039 2.2555236364401257 Q 5.93731724863878 2.2627859213470036 5.937069039407156 2.282859165345659 Q 5.936820830175532 2.302932409344314 5.936068463466541 2.3217879176905085 Q 5.93531609675755 2.340643426036703 5.9350208165841805 2.356801087570785 Q 5.934389069163414 2.385690275982448 5.935125639415651 2.4062412000537385 Q 6.047745706213873 2.408803492943116 6.179407166585143 2.4072207325269086 Q 6.320368135309773 2.405526178624055 6.372491384935543 2.4046548228080264 Q 6.424614634561314 2.4037834669919977 6.472079304208825 2.402233836207185 Q 6.593444709007436 2.3993062935888463 6.652160794372877 2.397131886038442 Q 6.668796135979595 2.39644238672795 6.676969108630128 2.4044211917437814 Q 6.68514208128066 2.4123999967596124 6.685256816701166 2.4219442290170092 Q 6.685371552121672 2.431488461274406 6.677893962649349 2.4406344456733637 Q 6.6704163731770265 2.449780430072322 6.6552434911268055 2.4499628299715877 L 6.59113171213714 2.451223064450749 L 6.123650216751547 2.451947680040954 Q 5.992967651996421 2.4535186727217244 5.935743445526067 2.4576332199012603 Q 5.935565842707062 2.483579837596775 5.938442604090852 2.519280108247413 Q 5.94188530356305 2.561337316535264 5.943335451990382 2.5801663474767262 Q 5.944785600417713 2.5989953784181887 5.937538025180131 2.6069148013631085 Q 5.930290449942548 2.6148342243080283 5.920746217685151 2.614948959728534 Q 5.911201985427755 2.61506369514904 5.901808335190902 2.60734432370654 Q 5.892414684954049 2.5996249522640404 5.892939979362159 2.58224072927592 Q 5.893465273770269 2.5648565062878 5.893801741017666 2.552124979410219 Q 5.894138208265063 2.5393934525326385 5.8945129206526286 2.5298433364075232 Q 5.894887633040195 2.5202932202824084 5.895288822832493 2.5129456192936153 Q 5.895690012624791 2.5055980183048225 5.895843536579194 2.4980086353458533 Q 5.895997060533597 2.490419252386884 5.895879383179232 2.480630296225451 L 5.8956028413964745 2.4576262492460845 M 6.3935316489279375 2.027353280228331 L 6.565745389069667 2.0041543191884714 Q 6.5890475594612035 2.0011488380923304 6.605553263488541 1.99901995564923 Q 6.6127725775463935 1.997595280923529 6.61811265826112 1.9969065248389966 Q 6.602333882506378 1.8745701302834321 6.593253209712378 1.8347777074974245 Q 6.583499232466711 1.7935915132514488 6.584564481346298 1.786544590129239 Q 6.585629730225885 1.7794976670070293 6.5893727452792685 1.7740795204699327 Q 6.5968587753860355 1.7632432273957397 6.6072962058739115 1.7618970223214263 Q 6.617733636361787 1.7605508172471132 6.626447965151276 1.7688040730898005 Q 6.635162293940765 1.7770573289324878 6.636320252617552 1.7936882613388319 Q 6.640277975214993 1.8741179946401183 6.652669474236217 1.9376667426060674 Q 6.66506097325744 2.0012154905720165 6.6672764549973795 2.0088263452287713 Q 6.6694919367373195 2.016437199885526 6.669060959398214 2.022662008898746 Q 6.668629982059108 2.0288868179119657 6.665372428888881 2.0342423502595595 Q 6.65855970323378 2.0464724147937203 6.6424142327105935 2.0475677592810038 Q 6.501176535635675 2.0583813317999997 6.331022145589147 2.080327605220782 Q 6.1608677555426175 2.1022738786415642 6.116902148022158 2.1076977318500023 Q 6.072936540501697 2.11312158505844 6.036526899264922 2.117817649271161 Q 5.9584927644556505 2.128869457547449 5.926522620173225 2.13546061056518 Q 5.894552475890799 2.1420517635829106 5.887771864988486 2.1392247839227716 Q 5.880991254086172 2.136397804262632 5.877389726702698 2.131433408684923 Q 5.873052280678055 2.1245897797640887 5.873554001852115 2.1131736996934656 Q 5.87432243907509 2.092346001274351 5.870002059999387 2.058849131336518 Q 5.861674372795496 1.9942827008766368 5.85596754424724 1.9710821775857883 Q 5.850260715698983 1.94788165429494 5.8515686955201485 1.9408034240779788 Q 5.852876675341314 1.9337251938610174 5.856196842701043 1.928855123396581 Q 5.862711949041496 1.9181440587013938 5.8738775723541075 1.9167039323428259 Q 5.885043195666718 1.9152638059842582 5.893452179325126 1.92306290703854 Q 5.9018611629835345 1.9308620080928218 5.90307401003339 1.9460052477549434 Q 5.904286857083246 1.961148487417065 5.905264699007956 1.9782961888013173 Q 5.906242540932667 1.9954438901855698 5.907776184746471 2.0149875938908557 Q 5.911579391015247 2.0559542346445525 5.917888780180215 2.085739800452772 Q 5.960123964014874 2.0802923659660157 6.001936300155879 2.0753930075519196 Q 6.051516026427397 2.069491822105776 6.1025521383483845 2.063402794091124 Q 6.239640231967168 2.0472019783007647 6.304692124310206 2.03881167690737 Q 6.296865350622338 1.9781289415127448 6.290258342142722 1.9498623755434994 Q 6.282852800832434 1.919231114347972 6.288130671186677 1.910407008812343 Q 6.293408541540919 1.9015829032767142 6.304088702970374 1.9002053911076493 Q 6.3307891065440085 1.8967616106849874 6.336267444296498 1.9468894130291645 Q 6.337096880392902 1.9571467267649645 6.338161321614453 1.9653995787786336 L 6.342747609081035 2.0047846055038536 L 6.346441846261708 2.0334268566101166 L 6.3935316489279375 2.027353280228331 M 6.371454411009547 1.613595321893913 Q 6.3671593200202485 1.5970105526798926 6.378848832873816 1.5894325418331134 Q 6.390538345727383 1.5818545309863346 6.419917079763648 1.5742460840910044 Q 6.449295813799913 1.5666376371956743 6.472797556392456 1.5519554660510884 Q 6.496299298984999 1.5372732949065024 6.510150262734707 1.5185172536772256 Q 6.537729473348715 1.4805313206697002 6.524476049724591 1.4293554613807227 Q 6.5112226261004675 1.3781796020917454 6.465697626791045 1.3576091593475164 Q 6.420172627481623 1.3370387166032873 6.3495688956847935 1.3553235325291615 Q 6.255272636439362 1.379744192725463 6.202564954982746 1.4788460527400584 Q 6.187605941327588 1.5069904220486914 6.173427570434923 1.5361967008443456 Q 6.159249199542258 1.56540297964 6.143342484789156 1.59379278271945 Q 6.127435770036054 1.6221825857988998 6.105563380939146 1.6470610522427152 Q 6.057465264904499 1.701484824712644 5.983070728715893 1.7207513757217865 Q 5.906780790331398 1.7405087942725632 5.848211481869357 1.7076419637756683 Q 5.790238740841696 1.6751262669423372 5.772812943113681 1.6078394889883114 Q 5.757841483093839 1.550029722013726 5.787125311047676 1.5030065945904079 Q 5.820990893620502 1.450246209601439 5.900509102947716 1.4331921604664235 Q 5.9044226242249005 1.4326842759321272 5.908625920722944 1.4313428986889642 Q 5.912829217220988 1.4300015214458013 5.924982273158809 1.4281182256830176 Q 5.937135329096631 1.4262349299202337 5.948645677181644 1.4326081858107493 Q 5.960156025266656 1.4389814417012647 5.96279443830294 1.449169228504163 Q 5.965432851339224 1.4593570153070614 5.958033518915398 1.4688577528071083 Q 5.9506341864915715 1.4783584903071552 5.934857384497425 1.4799161778953687 Q 5.898670974912156 1.4827144533935568 5.880901579325706 1.4873163365963775 Q 5.863132183739256 1.491918219799198 5.848677943027223 1.502487576314211 Q 5.83422370231519 1.5130569328292238 5.824971510177131 1.5280938355741465 Q 5.8055364417957325 1.5604311939161055 5.8160900939408675 1.6011823411276986 Q 5.82774819805468 1.6461981432800399 5.865911496862374 1.6666525786668047 Q 5.908128050825323 1.6890910991495418 5.957882358467384 1.676205826181644 Q 6.007636666109446 1.6633205532137463 6.035377538153744 1.6445067514785383 Q 6.063118410198042 1.6256929497433306 6.083156755541766 1.6015422761156355 Q 6.10319510088549 1.5773916024879404 6.1176802639916765 1.549369950064716 Q 6.1321654270978625 1.5213482976414918 6.145992664326964 1.492738586280218 Q 6.159819901556065 1.4641288749189443 6.175015840485709 1.4359231471676073 Q 6.190211779415353 1.40771741941627 6.211136467414317 1.3830843867432718 Q 6.258760732899993 1.3287833311587516 6.334102970186542 1.3092713463787922 Q 6.4222391722953365 1.2864460056928015 6.486617404230451 1.3183140841137657 Q 6.550399068731185 1.3498310288711663 6.569911053511144 1.4251732661577163 Q 6.58807315255161 1.495303147405574 6.545466860311795 1.553360973396546 Q 6.505563937487743 1.6081905284447982 6.442067963925493 1.624634591089544 Q 6.378571990363244 1.6410786537342896 6.371454411009547 1.613595321893913" fill="#1a702d" fill-rule="nonzero"></path></g><g clip-path="url(#SvgjsClipPath1096)"><g clip-path="url(#SvgjsClipPath109113f40667-9cac-48fb-84ce-704bcd71d63a)"><path d=" M 1.8746759701167448 2.4728816760674444 C 1.881073373479585 2.208427505159782 1.8240527459501459 1.9462859390337273 1.7083835136841088 1.7083835136841035 C 1.9462859390337175 1.8240527459501397 2.2084275051597793 1.8810733734795781 2.4728816760674506 1.87467597011674 C 2.7373338742720987 1.88105267451172 2.999470609557069 1.824033097779357 3.237379838450792 1.7083835136841004 C 3.1216777889472156 1.9462781883850588 3.064620772196562 2.2084192231172763 3.0709809207784433 2.472881676067445 C 3.0646336982633438 2.737308728206483 3.121690490078149 2.9994122248349386 3.237379838450806 3.2372733772110767 C 2.999470609557069 3.121623793115819 2.7373338742720987 3.0646042163834557 2.4728816760674506 3.0709809207784358 C 2.2084275051597793 3.0645835174155973 1.9462859390337175 3.121604144945035 1.7083835136841088 3.237273377211075 C 1.8240400440627675 2.9994044745999475 1.8810604467717886 2.737300446782564 1.8746759701167588 2.4728816760674444 Z" fill="#1a702d" transform="matrix(1,0,0,1,0,0)" fill-rule="evenodd"></path></g><g clip-path="url(#SvgjsClipPath109113f40667-9cac-48fb-84ce-704bcd71d63a)"><path d=" M 2.4728816760674506 0 C 2.712534197018542 0.243620462123319 3.0110916688823823 0.42115598863025056 3.3395826285758266 0.5153788614535262 C 3.4531986147806943 0.9121022506774524 3.4168183855265766 1.3367656350749684 3.237379838450792 1.7083835136841001 L 2.4728816760674364 0.943885351300756 L 1.7083835136840948 1.7083835136841001 C 1.52888625445999 1.3367817379739844 1.4925041417949785 0.9120963686778875 1.606180723559032 0.5153788614535256 C 1.9346620347030203 0.42113366242777545 2.233214146643109 0.2436013231694587 2.4728816760674506 -3.7822630259255716e-16 Z" fill="#91ca9d" transform="matrix(1,0,0,1,0,0)" fill-rule="evenodd"></path></g><g clip-path="url(#SvgjsClipPath109113f40667-9cac-48fb-84ce-704bcd71d63a)"><path d=" M 3.339476167336128 0.5153788614535258 L 4.4302780294416495 1.6061807235590464 C 4.31666204323681 1.2094573343351198 4.353042272490927 0.7847939499376039 4.532480819566712 0.41317607132847234 C 4.160862940957582 0.5926146184042488 3.7361995565600696 0.6289948476583641 3.339476167336142 0.515378861453526 Z" fill="#1a702d" transform="matrix(1,0,0,1,0,0)" fill-rule="evenodd"></path></g><g clip-path="url(#SvgjsClipPath109113f40667-9cac-48fb-84ce-704bcd71d63a)"><path d=" M 4.945656890895174 2.4728816760674444 C 4.702093814563847 2.2331841573287954 4.524567841757514 1.9346427517067277 4.430278029441663 1.6061807235590473 C 4.03359539506096 1.492511134069297 3.6089457142018593 1.5288934360438384 3.237379838450792 1.7083835136840997 L 4.001878000834133 2.4728816760674444 L 3.237379838450792 3.2373798384507886 C 3.608959136418725 3.4168209818855004 4.033590492333866 3.453201713851456 4.4302780294416495 3.3395826285758425 C 4.524541080038484 3.011109032885816 4.702070871429645 2.7125612056361876 4.945656890895174 2.4728816760674444 Z" fill="#91ca9d" transform="matrix(1,0,0,1,0,0)" fill-rule="evenodd"></path></g><g clip-path="url(#SvgjsClipPath109113f40667-9cac-48fb-84ce-704bcd71d63a)"><path d=" M 0.5153788614535251 1.6061807235590464 L 1.6061807235590462 0.5153788614535257 C 1.209467142911008 0.6290958688529262 0.7847671017418897 0.5927124992721335 0.41317607132847645 0.41317607132847195 C 0.5926635417848195 0.7847805321083674 0.6290453403845417 1.2094622353463576 0.5153788614535251 1.6061807235590462 Z" fill="#1a702d" transform="matrix(1,0,0,1,0,0)" fill-rule="evenodd"></path></g><g clip-path="url(#SvgjsClipPath109113f40667-9cac-48fb-84ce-704bcd71d63a)"><path d=" M 0 2.4728816760674444 C 0.24365877114341636 2.712504152397113 0.42120068020808926 3.011072357663671 0.5153788614535251 3.3395826285758425 C 0.9121022506774664 3.45319861478068 1.3367656350749793 3.4168183855265646 1.7083835136841088 3.237379838450788 L 0.9438853513007531 2.472881676067444 L 1.7083835136841088 1.7083835136840997 C 1.3367817379740057 1.5288862544600077 0.9120963686779047 1.4925041417949843 0.5153788614535391 1.6061807235590462 C 0.4211738589903901 1.934679405479829 0.24363578075092865 2.233241168534463 1.4056402309549794e-14 2.4728816760674452 Z" fill="#91ca9d" transform="matrix(1,0,0,1,0,0)" fill-rule="evenodd"></path></g><g clip-path="url(#SvgjsClipPath109113f40667-9cac-48fb-84ce-704bcd71d63a)"><path d=" M 0.5153788614535251 3.339476167336128 L 1.6061807235590462 4.430278029441649 C 1.2094573343351187 4.316662043236811 0.784793949937606 4.353042272490925 0.41317607132846235 4.532480819566702 C 0.5926733305525672 4.160879043856587 0.6290554432175927 3.73619367456049 0.5153788614535251 3.3394761673361275 Z" fill="#1a702d" transform="matrix(1,0,0,1,0,0)" fill-rule="evenodd"></path></g><g clip-path="url(#SvgjsClipPath109113f40667-9cac-48fb-84ce-704bcd71d63a)"><path d=" M 2.4728816760674506 4.945656890895174 C 2.7125612056361827 4.702070871429645 3.0111090328858117 4.5245410800384835 3.3395826285758408 4.4302780294416495 C 3.453065794156459 4.033755064709827 3.416687254933531 3.609338773775744 3.237379838450792 3.2379121446493566 L 2.4728816760674364 4.002303845792986 L 1.7083835136840948 3.2379121446493557 C 1.5290272111505394 3.60932536721314 1.4926471035084645 4.033759956370654 1.606180723559032 4.4302780294416495 C 1.9346427517067002 4.524567841757497 2.233184157328784 4.70209381456384 2.4728816760674364 4.945656890895173 Z" fill="#91ca9d" transform="matrix(1,0,0,1,0,0)" fill-rule="evenodd"></path></g><g clip-path="url(#SvgjsClipPath109113f40667-9cac-48fb-84ce-704bcd71d63a)"><path d=" M 3.339476167336128 4.430384490681362 L 4.4302780294416495 3.3394761673361284 C 4.316665138609068 3.7362354082490263 4.353044865408342 4.160930823081823 4.532480819566712 4.532587280806417 C 4.160892476732557 4.353041057269237 3.7361887656839348 4.316657373295769 3.339476167336142 4.430384490681361 Z" fill="#1a702d" transform="matrix(1,0,0,1,0,0)" fill-rule="evenodd"></path></g></g><g><path d=" M -0.6331224824181434 2.472828445447587 A 3.1059509278657305 3.1059509278657305 0 0 1 5.578779373313317 2.472828445447587 A 3.1059509278657305 3.1059509278657305 0 0 1 -0.6331224824181438 2.472828445447587 Z M -0.5831224824181431 2.4728284454475875 A 3.0559509278657306 3.0559509278657306 0 0 0 5.528779373313318 2.4728284454475875 A 3.0559509278657306 3.0559509278657306 0 0 0 -0.5831224824181431 2.4728284454475875 Z" fill="#91ca9d" fill-rule="nonzero"></path></g><g transform="matrix(0.7561863817974833,-0.6543562913153894,0.6543562913153894,0.7561863817974833,-0.210755113403523,-0.29086236649470437)"><g clip-path="url(#SvgjsClipPath1097)"><path d=" M -0.8242280775360065 0.3460868409591792 C -0.7705183413780806 0.3489299435648111 -0.7167951160472084 0.34073613569042926 -0.6663763922119817 0.3220069378686573 C -0.6310015549743169 0.3051281778741517 -0.6036946266635339 0.2749988995315007 -0.5903645567826273 0.23814232852710515 C -0.5793587751632592 0.2552874132182452 -0.5646659529385338 0.26975887465615733 -0.5473548476572839 0.2804983315788908 C -0.5268236346803609 0.2925590356979155 -0.5027333553029569 0.29708655554070396 -0.4792241479909377 0.29329575206652814 C -0.4557149406789186 0.28950840735464634 -0.4342636969318032 0.27764485268637706 -0.41856091611724267 0.25974575781515463 C -0.3975178063208141 0.23695251429798414 -0.3861177257999351 0.20689586996350617 -0.38675413806202297 0.17588114847360237 C -0.3885976583647015 0.14146646364873977 -0.3972030589520642 0.10775044880725626 -0.41208265434066305 0.07666309330917931 L -0.44958947265632243 0.09416788927889086 C -0.44407620555975647 0.10602452642257215 -0.44096677825749 0.1188565345331491 -0.44043758762651475 0.131923738479715 C -0.4393826651268581 0.14611504017181665 -0.44367153037136364 0.16019220270821777 -0.45246370412259984 0.17138129872916563 C -0.4571849146538498 0.17605408658830024 -0.4628538260536438 0.17965465813630843 -0.4690865157073526 0.18194781753720124 C -0.47532266412335533 0.18423751817580014 -0.4819738640146329 0.18516100770828647 -0.4885973938075587 0.18465948717566283 C -0.49620667085426196 0.18479092014283316 -0.503757148941968 0.18332786369248977 -0.510764601349523 0.18036024564427544 C -0.5177720537570779 0.17739262759606123 -0.5240808361812537 0.1729896231958552 -0.5292793559090696 0.1674313921894678 C -0.5347269065220503 0.16180052717490734 -0.5390019367173802 0.15514240975904192 -0.5418519568475999 0.14784442131879472 C -0.5447019769778196 0.14054643287854746 -0.5460716468462262 0.13275384143026447 -0.5458814149200586 0.12492320359674797 C -0.5451343222645642 0.10604527899633587 -0.5399288850121603 0.08761007596955017 -0.5306939896872978 0.07112561487655572 C -0.521459094362435 0.05464461254585512 -0.5084576068994542 0.04057782629633594 -0.49274790856030587 0.030080482734179348 C -0.45835743507150095 0.0026144513578744144 -0.41553449911003126 -0.012126793538966285 -0.37152520768173447 -0.011650521971088568 C -0.3266062617701273 -0.012578162018327566 -0.28315383107115755 0.004374961365498031 -0.2507313933276136 0.0354830694373387 C -0.2348522156360615 0.04978851028514086 -0.22220006316477026 0.06731060006632217 -0.21361195638887742 0.08688373588781939 C -0.20502384961298448 0.10645341294702271 -0.2007003967455394 0.12763141447291554 -0.20092175753235264 0.14900310668726996 C -0.19924771658207796 0.18928039360038806 -0.21340097188894602 0.22861689716955014 -0.24035510644574543 0.25859398997126726 C -0.26835724597761357 0.2876095468552644 -0.306728754866762 0.304325745021954 -0.3470475469274076 0.30507975520203645 L -0.3470475469274076 0.34618368630341 L -0.33352032759574546 0.34618368630341 C -0.26768278733029227 0.34930694865485235 -0.20285520565467408 0.3290904830466793 -0.15046533318812183 0.2891002734039595 C -0.12793495560529222 0.27117350843438526 -0.10989751024231142 0.2482349969008688 -0.09779184221346526 0.22211442405691284 C -0.08568617418461921 0.19599039245066285 -0.07984086590783346 0.1674037220911161 -0.08072630905508626 0.1386268198054018 C -0.08030088129292967 0.10937260832312157 -0.08609776689759996 0.08036396896371228 -0.09773650201676198 0.0535239735626134 C -0.10937523713592412 0.026683978161514466 -0.12659295583523733 0.0026282864070502066 -0.14823789027081424 -0.01705137929310091 C -0.1700834329194405 -0.037978620552681974 -0.19583737696023729 -0.05439494402848549 -0.22402974841827306 -0.06536129575770255 C -0.2522221198763086 -0.07632764748691956 -0.28229951678455045 -0.08162889245486599 -0.31254293428290203 -0.08096204308459126 C -0.3875531121519268 -0.08096204308459126 -0.4661915316673114 -0.04858180224103359 -0.5484547340667619 0.01617971707476995 L -0.5734615854520642 0.036181739420717784 C -0.62383499950124 0.07604051609626722 -0.6630092871188156 0.095966445671748 -0.6909806436662674 0.095966445671748 C -0.7062562673375243 0.09586268280292931 -0.7208764555540765 0.08975104982950899 -0.7316802454554776 0.07894933518548425 C -0.7424843812331081 0.06815107930375353 -0.7486039693598046 0.05353434984949523 -0.7487149956294405 0.038256996797091436 C -0.7487468162425449 0.029177745775456787 -0.7467915779177715 0.020198798860346923 -0.7429859017657316 0.011953109551555707 C -0.7391805714899213 0.003707420242764492 -0.7336174982163224 -0.003606824380264384 -0.7266864844554639 -0.009474960488190187 C -0.7123129059904707 -0.022672905649467667 -0.6934131911876067 -0.02983531060779182 -0.6739026589636301 -0.029478366339055595 C -0.6598576629165627 -0.02859465257294974 -0.6461464374308623 -0.02481768414794977 -0.6336302143177235 -0.01838507803365036 C -0.6211129535758966 -0.011952471919350893 -0.610058749284413 -0.0030025786075102423 -0.6011662714266521 0.007902898905333133 L -0.5695601015844818 -0.019101733580958014 C -0.5851556607679296 -0.045925126923045956 -0.6077137084491109 -0.06803353550601299 -0.6348445857591314 -0.0830871066379979 C -0.6619761548216108 -0.09814067776998275 -0.6926730160567001 -0.10557943783559401 -0.723686008165457 -0.10461617253672725 C -0.7631819606763705 -0.10609790630345803 -0.8018201401383828 -0.09285603486104732 -0.8321043710318031 -0.06745972684144569 C -0.8458439583683142 -0.05600568962878083 -0.8568269121565422 -0.04160374931297722 -0.8642376562475723 -0.02532335519532619 C -0.8716484003386026 -0.009042961077675049 -0.875296356930038 0.008698414232943097 -0.8749113966867207 0.02658021529269583 C -0.8751019744891176 0.03965433676384966 -0.872705743971865 0.05263507165306669 -0.8678610556267207 0.06477878606714638 C -0.8630163672815765 0.07692595924351997 -0.8558186829478539 0.08799053982188532 -0.8466816705959103 0.09734303306474251 C -0.8264489488049556 0.11786732851707765 -0.8001481744454845 0.13133229012744851 -0.7716690715932798 0.13574912957683039 C -0.7897877978701685 0.14454476209036066 -0.8057582868862811 0.15720383208623978 -0.8184550573911644 0.172840896417215 C -0.8311518278960476 0.18847450198589633 -0.8402663582930806 0.20670217927504475 -0.8451567023005051 0.22624072747360235 L -0.8517826532270366 0.24699330123733865 C -0.8561489947469267 0.26387897875643207 -0.8641536083238293 0.2796094296693441 -0.8752365203423526 0.2930778500420089 C -0.8800618396186506 0.2973355864258689 -0.8856861329848525 0.30059028174448144 -0.8917815097754913 0.3026551628339733 C -0.8978772324423594 0.3047200439234651 -0.9043226359771466 0.3055536056363084 -0.9107427905471878 0.30510396653809413 L -0.9107427905471878 0.3462113564017617 L -0.8242280775360065 0.3460868409591792 Z M -0.7835962674877578 0.3083033216600035 C -0.760304270447799 0.2982348646222974 -0.7414225412088635 0.28010749143967384 -0.7304122631985133 0.25724507267662433 L -0.7233608845098252 0.24521895618053913 C -0.6895552877249281 0.1854411674540969 -0.6524320461476685 0.15167672994049797 -0.6119921974067345 0.14392564363974247 C -0.6208431701169679 0.25352690321062166 -0.6780448726868719 0.30832061547147327 -0.7835962674877578 0.3083033216600035 Z" fill="#114b1e" transform="matrix(1,0,0,1,0,0)" fill-rule="nonzero"></path></g></g><g transform="matrix(-0.7561863817974833,-0.6543562913153894,-0.6543562913153894,0.7561863817974833,9.645920438605147,3.5940767961477333)"><g clip-path="url(#SvgjsClipPath1098)"><path d=" M 5.112811443904092 0.34608684095917963 C 5.166521180062018 0.34892994356481155 5.22024440539289 0.3407361356904297 5.270663129228117 0.32200693786865775 C 5.306037966465782 0.30512817787415214 5.333344894776564 0.27499889953150114 5.346674964657471 0.2381423285271056 C 5.35768074627684 0.25528741321824566 5.3723735685015646 0.2697588746561578 5.389684673782814 0.28049833157889126 C 5.410215886759738 0.29255903569791597 5.434306166137142 0.2970865555407044 5.457815373449161 0.2932957520665286 C 5.48132458076118 0.2895084073546468 5.502775824508295 0.2776448526863775 5.518478605322856 0.2597457578151551 C 5.539521715119284 0.23695251429798458 5.550921795640163 0.20689586996350662 5.550285383378076 0.1758811484736028 C 5.548441863075397 0.14146646364874021 5.539836462488035 0.1077504488072567 5.524956867099435 0.07666309330917975 L 5.487450048783776 0.0941678892788913 C 5.492963315880342 0.1060245264225726 5.496072743182609 0.11885653453314954 5.496601933813584 0.13192373847971545 C 5.49765685631324 0.1461150401718171 5.493367991068735 0.1601922027082182 5.4845758173174985 0.17138129872916608 C 5.479854606786248 0.17605408658830068 5.4741856953864545 0.17965465813630888 5.4679530057327455 0.18194781753720168 C 5.461716857316743 0.18423751817580059 5.4550656574254655 0.18516100770828692 5.44844212763254 0.18465948717566327 C 5.440832850585837 0.1847909201428336 5.43328237249813 0.1833278636924902 5.4262749200905755 0.18036024564427589 C 5.419267467683021 0.17739262759606167 5.412958685258845 0.17298962319585565 5.407760165531029 0.16743139218946823 C 5.402312614918048 0.16180052717490778 5.398037584722719 0.15514240975904237 5.395187564592499 0.14784442131879516 C 5.392337544462279 0.1405464328785479 5.390967874593873 0.13275384143026492 5.39115810652004 0.12492320359674841 C 5.391905199175534 0.10604527899633631 5.397110636427938 0.08761007596955062 5.406345531752801 0.07112561487655616 C 5.415580427077663 0.054644612545855564 5.428581914540644 0.04057782629633638 5.444291612879793 0.030080482734179792 C 5.478682086368598 0.0026144513578748585 5.521505022330067 -0.012126793538965841 5.565514313758364 -0.011650521971088124 C 5.610433259669971 -0.012578162018327121 5.653885690368941 0.004374961365498475 5.6863081281124845 0.03548306943733914 C 5.702187305804037 0.04978851028514131 5.714839458275328 0.06731060006632261 5.723427565051221 0.08688373588781984 C 5.732015671827114 0.10645341294702315 5.736339124694559 0.12763141447291598 5.736117763907746 0.1490031066872704 C 5.737791804858021 0.1892803936003885 5.723638549551152 0.22861689716955058 5.696684414994353 0.2585939899712677 C 5.668682275462485 0.28760954685526485 5.630310766573336 0.3043257450219544 5.5899919745126905 0.3050797552020369 L 5.5899919745126905 0.34618368630341045 L 5.603519193844353 0.34618368630341045 C 5.669356734109806 0.3493069486548528 5.734184315785424 0.32909048304667976 5.786574188251977 0.28910027340395994 C 5.809104565834806 0.2711735084343857 5.827142011197787 0.24823499690086925 5.8392476792266335 0.22211442405691328 C 5.851353347255479 0.1959903924506633 5.857198655532265 0.16740372209111654 5.856313212385012 0.13862681980540226 C 5.856738640147169 0.10937260832312201 5.850941754542498 0.08036396896371273 5.839303019423337 0.05352397356261385 C 5.827664284304174 0.02668397816151491 5.810446565604861 0.0026282864070506506 5.788801631169284 -0.017051379293100466 C 5.766956088520658 -0.03797862055268153 5.741202144479861 -0.05439494402848505 5.713009773021826 -0.06536129575770211 C 5.68481740156379 -0.07632764748691911 5.654740004655548 -0.08162889245486554 5.624496587157196 -0.08096204308459082 C 5.549486409288171 -0.08096204308459082 5.470847989772787 -0.048581802241033145 5.388584787373336 0.016179717074770394 L 5.363577935988034 0.03618173942071823 C 5.313204521938858 0.07604051609626766 5.274030234321283 0.09596644567174845 5.246058877773831 0.09596644567174845 C 5.230783254102574 0.09586268280292976 5.216163065886022 0.08975104982950943 5.205359275984621 0.07894933518548469 C 5.19455514020699 0.06815107930375397 5.188435552080294 0.05353434984949568 5.188324525810658 0.03825699679709188 C 5.188292705197553 0.02917774577545723 5.190247943522327 0.020198798860347367 5.194053619674367 0.011953109551556151 C 5.197858949950177 0.003707420242764936 5.2034220232237764 -0.00360682438026394 5.2103530369846345 -0.009474960488189743 C 5.224726615449628 -0.022672905649467223 5.243626330252492 -0.029835310607791377 5.263136862476468 -0.02947836633905515 C 5.2771818585235355 -0.028594652572949297 5.2908930840092365 -0.024817684147949326 5.303409307122375 -0.018385078033649915 C 5.315926567864202 -0.01195247191935045 5.326980772155686 -0.003002578607509798 5.335873250013447 0.007902898905333577 L 5.367479419855616 -0.01910173358095757 C 5.351883860672169 -0.04592512692304551 5.329325812990987 -0.06803353550601254 5.3021949356809674 -0.08308710663799745 C 5.275063366618488 -0.09814067776998231 5.2443665053833985 -0.10557943783559356 5.213353513274641 -0.10461617253672681 C 5.173857560763728 -0.10609790630345758 5.135219381301716 -0.09285603486104688 5.104935150408295 -0.06745972684144524 C 5.091195563071785 -0.056005689628780386 5.0802126092835564 -0.04160374931297678 5.072801865192526 -0.025323355195325747 C 5.065391121101496 -0.009042961077674605 5.061743164510061 0.008698414232943541 5.062128124753378 0.026580215292696274 C 5.061937546950981 0.039654336763850107 5.064333777468233 0.052635071653067134 5.069178465813378 0.06477878606714682 C 5.074023154158522 0.07692595924352041 5.081220838492245 0.08799053982188576 5.090357850844188 0.09734303306474296 C 5.110590572635143 0.1178673285170781 5.136891346994614 0.13133229012744896 5.165370449846819 0.13574912957683083 C 5.14725172356993 0.1445447620903611 5.131281234553818 0.15720383208624022 5.118584464048934 0.17284089641721545 C 5.105887693544051 0.18847450198589677 5.096773163147018 0.2067021792750452 5.0918828191395935 0.2262407274736028 L 5.085256868213062 0.2469933012373391 C 5.080890526693172 0.2638789787564325 5.072885913116269 0.27960942966934454 5.061803001097746 0.29307785004200937 C 5.056977681821448 0.2973355864258693 5.0513533884552455 0.3005902817444819 5.0452580116646075 0.30265516283397376 C 5.039162288997739 0.3047200439234655 5.032716885462952 0.30555360563630884 5.026296730892911 0.3051039665380946 L 5.026296730892911 0.34621135640176215 L 5.112811443904092 0.34608684095917963 Z M 5.153443253952341 0.30830332166000396 C 5.1767352509923 0.29823486462229787 5.195616980231235 0.2801074914396743 5.206627258241586 0.2572450726766248 L 5.213678636930274 0.24521895618053957 C 5.24748423371517 0.18544116745409733 5.28460747529243 0.1516767299404984 5.325047324033364 0.14392564363974292 C 5.31619635132313 0.2535269032106221 5.258994648753227 0.3083206154714737 5.153443253952341 0.30830332166000396 Z" fill="#114b1e" transform="matrix(1,0,0,1,0,0)" fill-rule="nonzero"></path></g></g></g><defs><clipPath id="SvgjsClipPath1096"><path d=" M 0 0 h 4.945656890895174 v 4.945656890895174 h -4.945656890895174 Z"></path></clipPath><clipPath id="SvgjsClipPath109113f40667-9cac-48fb-84ce-704bcd71d63a"><path d=" M 0 0 L 4.945656890895174 0 L 4.945656890895174 4.945656890895174 L 0 4.945656890895174 Z"></path></clipPath><clipPath id="SvgjsClipPath1097"><path d=" M -0.9799180364263086 -0.3468415970119745 h 0.9684534423076923 v 0.9684534423076923 h -0.9684534423076923 Z"></path></clipPath><clipPath id="SvgjsClipPath1098"><path d=" M 4.95712148501379 -0.34684159701197403 h 0.9684534423076923 v 0.9684534423076923 h -0.9684534423076923 Z"></path></clipPath></defs></svg>